<!-- Generated by IcoMoon.io -->
<svg version="1.1" xmlns="http://www.w3.org/2000/svg" width="32" height="32" viewBox="0 0 32 32">
<title>instagram</title>
<path d="M9.999 0h11.429c5.259 0 9.524 4.265 9.524 9.524v11.429c0 5.259-4.265 9.524-9.524 9.524h-11.429c-5.259 0-9.524-4.265-9.524-9.524v-11.429c0-5.259 4.265-9.524 9.524-9.524zM21.428 27.619c3.676 0 6.667-2.99 6.667-6.667v-11.428c0-3.676-2.991-6.667-6.667-6.667h-11.429c-3.676 0-6.667 2.99-6.667 6.667v11.428c0 3.676 2.99 6.667 6.667 6.667h11.429z"></path>
<path d="M8.094 15.238c0-4.208 3.411-7.619 7.619-7.619s7.619 3.411 7.619 7.619c0 4.208-3.412 7.619-7.619 7.619s-7.619-3.411-7.619-7.619zM10.951 15.238c0 2.625 2.137 4.762 4.762 4.762s4.762-2.137 4.762-4.762c0-2.627-2.137-4.762-4.762-4.762s-4.762 2.135-4.762 4.762z"></path>
<path d="M24.919 7.047c0 0.561-0.455 1.015-1.015 1.015s-1.015-0.455-1.015-1.015c0-0.561 0.455-1.015 1.015-1.015s1.015 0.455 1.015 1.015z"></path>
</svg>
