<!-- Generated by IcoMoon.io -->
<svg version="1.1" xmlns="http://www.w3.org/2000/svg" width="32" height="32" viewBox="0 0 32 32">
<title>linkedin</title>
<path d="M7.562 31.193h-6.093v-20.020h6.267v20.020h-0.174zM4.428 8.388c-1.915 0-3.656-1.567-3.656-3.656 0-1.915 1.567-3.656 3.656-3.656 1.915 0 3.656 1.567 3.656 3.656s-1.567 3.656-3.656 3.656zM30.89 31.193h-6.267v-9.749c0-2.263 0-5.223-3.134-5.223-3.308 0-3.656 2.437-3.656 5.049v9.923h-6.267v-20.020h5.919v2.785c0.87-1.567 2.785-3.134 5.919-3.134 6.267 0 7.486 4.178 7.486 9.575v10.794z"></path>
</svg>
