<!-- Generated by IcoMoon.io -->
<svg version="1.1" xmlns="http://www.w3.org/2000/svg" width="32" height="32" viewBox="0 0 32 32">
<title>twitter</title>
<path d="M30.698 6.888c-1.108 0.486-2.289 0.808-3.52 0.965 1.266-0.756 2.233-1.944 2.687-3.377-1.181 0.704-2.484 1.201-3.874 1.479-1.121-1.194-2.719-1.933-4.462-1.933-3.382 0-6.105 2.745-6.105 6.111 0 0.484 0.041 0.95 0.142 1.393-5.079-0.248-9.573-2.682-12.592-6.39-0.527 0.914-0.836 1.961-0.836 3.088 0 2.116 1.089 3.991 2.714 5.077-0.982-0.019-1.944-0.304-2.76-0.752 0 0.019 0 0.043 0 0.067 0 2.969 2.118 5.435 4.894 6.003-0.497 0.136-1.039 0.201-1.602 0.201-0.391 0-0.786-0.022-1.157-0.104 0.792 2.419 3.038 4.198 5.708 4.256-2.079 1.626-4.718 2.606-7.575 2.606-0.501 0-0.982-0.022-1.462-0.084 2.706 1.745 5.913 2.741 9.372 2.741 11.242 0 17.388-9.312 17.388-17.384 0-0.27-0.009-0.531-0.022-0.79 1.212-0.86 2.231-1.935 3.062-3.172z"></path>
</svg>
