<svg width="631" height="642" viewBox="0 0 631 642" fill="none" xmlns="http://www.w3.org/2000/svg">
<path opacity="0.5" d="M316 550.964C445.787 550.964 551 442.401 551 308.482C551 174.563 445.787 66 316 66C186.213 66 81 174.563 81 308.482C81 442.401 186.213 550.964 316 550.964Z" stroke="white" stroke-width="88"/>
<path d="M335.898 323.617L349.502 323.804L349.717 309.555L336.168 307.698L335.898 323.617Z" fill="#BF0830"/>
<path d="M381.701 319.893L395.319 317.185L392.478 303.22L378.559 304.276L381.701 319.893Z" fill="#BF0830"/>
<path d="M359.656 200.304C359.148 215.01 356.943 272.577 352.305 310.2C352.15 311.408 351.558 312.516 350.641 313.317C349.724 314.117 348.546 314.555 347.328 314.546C343.59 314.532 339.872 313.981 336.291 312.908C335.277 312.611 334.385 311.999 333.742 311.161C333.099 310.323 332.739 309.303 332.714 308.247L330.825 193.699C330.821 193.42 330.841 193.142 330.884 192.866L330.971 192.299C331.094 191.564 331.38 190.866 331.806 190.255C332.232 189.644 332.789 189.135 333.436 188.765C334.083 188.395 334.803 188.174 335.546 188.116C336.289 188.059 337.036 188.168 337.732 188.434L356.44 195.52C357.409 195.881 358.241 196.536 358.818 197.395C359.394 198.253 359.688 199.271 359.656 200.304V200.304Z" fill="#1A2578"/>
<path d="M379.344 193.672C379.727 214.221 381.208 234.735 383.781 255.127C386.105 273.021 392.742 291.606 393.817 307.195C393.881 308.201 393.581 309.195 392.971 309.997C392.361 310.798 391.482 311.353 390.496 311.559C386.355 312.459 382.095 312.673 377.885 312.19C377.019 312.1 376.202 311.743 375.547 311.17C374.892 310.597 374.43 309.835 374.225 308.988L359.638 259.664L350.796 209.805L341.318 182.685L379.344 193.672Z" fill="#2836A5"/>
<path d="M349.813 325.505H337.883L333.044 320.309L324.197 325.505H322.294C321.977 325.497 321.667 325.6 321.417 325.795C321.167 325.99 320.992 326.266 320.922 326.575C320.883 326.771 320.889 326.973 320.938 327.167C320.987 327.36 321.079 327.541 321.206 327.694C321.333 327.848 321.494 327.972 321.675 328.056C321.856 328.14 322.053 328.183 322.253 328.181H349.991C350.089 328.181 350.182 328.142 350.252 328.074C350.321 328.005 350.361 327.912 350.362 327.815V326.036C350.361 325.964 350.346 325.894 350.318 325.829C350.29 325.764 350.25 325.705 350.199 325.655C350.147 325.606 350.087 325.567 350.021 325.541C349.955 325.515 349.884 325.503 349.813 325.505V325.505Z" fill="#AE253D"/>
<path d="M349.708 325.52V320.694C349.708 320.694 347.696 318.027 344.64 319.386C344.64 319.386 340.011 322.625 335.949 318.709L325.822 323.137C325.822 323.137 323.045 324.052 322.295 325.52H349.708Z" fill="#1F1587"/>
<path d="M395.967 318.041L384.499 321.293L378.397 317.634L371.353 325.039L369.523 325.556C369.216 325.636 368.945 325.82 368.759 326.077C368.572 326.334 368.48 326.648 368.498 326.965C368.519 327.163 368.583 327.355 368.685 327.526C368.787 327.697 368.925 327.843 369.09 327.956C369.254 328.068 369.441 328.143 369.638 328.176C369.834 328.209 370.035 328.198 370.228 328.145L396.886 320.58C396.933 320.566 396.977 320.544 397.015 320.514C397.053 320.484 397.084 320.446 397.108 320.404C397.131 320.361 397.146 320.314 397.151 320.266C397.156 320.218 397.152 320.169 397.138 320.122L396.639 318.407C396.598 318.27 396.504 318.154 396.378 318.086C396.252 318.017 396.104 318.001 395.967 318.041V318.041Z" fill="#AE253D"/>
<path d="M395.867 318.08L394.494 313.442C394.494 313.442 391.818 311.429 389.261 313.57C389.261 313.57 385.721 317.943 380.703 315.29L372.213 322.307C372.213 322.307 369.798 323.944 369.469 325.563L395.867 318.08Z" fill="#1F1587"/>
<path d="M331.777 130.912C331.777 130.912 325.121 119.829 324.527 118.105C323.186 114.235 319.596 78.6883 319.596 78.6883L330.295 77.9336L336.241 105.933L344.219 123.392L331.777 130.912Z" fill="#BF0830"/>
<path d="M318.343 66.5119C318.594 66.4242 318.869 66.4349 319.112 66.5418C319.356 66.6488 319.55 66.844 319.655 67.0882L321.055 70.1942C321.075 70.243 321.11 70.2838 321.156 70.3103C321.201 70.3368 321.254 70.3474 321.307 70.3405V70.3405C321.344 70.3374 321.379 70.3261 321.411 70.3073C321.443 70.2885 321.47 70.2628 321.491 70.2321C321.512 70.2013 321.525 70.1663 321.53 70.1297C321.536 70.093 321.533 70.0557 321.522 70.0203L320.081 65.1945C320.038 65.0725 320.024 64.942 320.04 64.8137C320.057 64.6853 320.103 64.5627 320.176 64.4555C320.248 64.3483 320.345 64.2596 320.458 64.1965C320.571 64.1334 320.697 64.0976 320.826 64.0921V64.0921C321.12 64.0761 321.41 64.1569 321.653 64.3222C321.896 64.4875 322.078 64.7281 322.171 65.007L323.64 69.9243C323.655 69.9798 323.69 70.028 323.738 70.0606C323.785 70.0932 323.843 70.1081 323.9 70.1027H323.983C324.015 70.1004 324.048 70.0915 324.077 70.0766C324.106 70.0617 324.133 70.0411 324.154 70.016C324.175 69.9908 324.191 69.9616 324.201 69.9302C324.211 69.8987 324.214 69.8656 324.211 69.8328L323.676 64.1607C323.649 63.8963 323.722 63.6312 323.881 63.4184C324.041 63.2056 324.275 63.0607 324.536 63.0126C324.675 62.9907 324.816 62.9974 324.952 63.0321C325.088 63.0668 325.215 63.1289 325.326 63.2146C325.437 63.3003 325.529 63.4077 325.597 63.5302C325.665 63.6528 325.707 63.788 325.721 63.9274L326.261 69.6361C326.263 69.6688 326.272 69.7007 326.287 69.7299C326.302 69.7591 326.322 69.785 326.348 69.8059C326.373 69.8269 326.402 69.8425 326.433 69.8518C326.465 69.8612 326.498 69.864 326.53 69.8602L326.796 69.8374C326.857 69.8318 326.914 69.8041 326.956 69.7594C326.998 69.7148 327.022 69.6563 327.024 69.5949L327.221 64.2751C327.227 64.0097 327.333 63.7564 327.518 63.5662C327.703 63.376 327.953 63.2632 328.218 63.2505C328.359 63.2459 328.499 63.2705 328.63 63.3226C328.761 63.3747 328.88 63.4532 328.979 63.5532C329.078 63.6532 329.155 63.7726 329.206 63.9039C329.257 64.0352 329.281 64.1755 329.275 64.3163C329.275 64.3163 329.412 72.4447 329.54 73.7117L331.827 71.818C331.913 71.7139 332.019 71.6277 332.138 71.5644C332.257 71.5011 332.387 71.4619 332.522 71.4492C332.656 71.4364 332.791 71.4503 332.92 71.4901C333.049 71.5298 333.169 71.5946 333.273 71.6808V71.6808C333.377 71.7669 333.463 71.8728 333.527 71.9923C333.59 72.1118 333.629 72.2427 333.642 72.3774C333.655 72.512 333.641 72.6479 333.601 72.7772C333.561 72.9065 333.496 73.0266 333.41 73.1308L329.806 78.6885C329.572 78.9721 328.831 79.0453 328.223 78.9584C322.24 79.9876 321.311 80.0974 319.674 80.2255L319.285 73.7483C319.172 71.8789 318.721 70.0454 317.954 68.337L317.757 67.907C317.698 67.7777 317.666 67.6376 317.664 67.4955C317.662 67.3533 317.689 67.2123 317.744 67.0812C317.799 66.9502 317.881 66.8319 317.984 66.7339C318.087 66.6359 318.209 66.5603 318.343 66.5119V66.5119Z" fill="#BF0830"/>
<path d="M392.444 137.742C392.444 137.742 401.062 128.104 401.968 126.535C404.008 122.986 414.209 88.7475 414.209 88.7475L403.843 86.0029L392.737 112.387L381.617 128.058L392.444 137.742Z" fill="#BF0830"/>
<path d="M417.708 77.0107C417.479 76.8766 417.207 76.8347 416.948 76.8933C416.689 76.9519 416.462 77.1066 416.313 77.3263L414.355 80.1166C414.326 80.1607 414.284 80.194 414.234 80.2114C414.185 80.2288 414.131 80.2292 414.081 80.2126V80.2126C414.045 80.2025 414.013 80.1847 413.985 80.1605C413.958 80.1362 413.936 80.1061 413.921 80.0724C413.907 80.0387 413.9 80.0021 413.902 79.9655C413.903 79.9288 413.913 79.8929 413.93 79.8604L416.249 75.3914C416.314 75.2795 416.352 75.1541 416.359 75.0251C416.367 74.8961 416.345 74.767 416.295 74.648C416.244 74.5291 416.166 74.4235 416.068 74.3398C415.969 74.256 415.853 74.1963 415.727 74.1655V74.1655C415.443 74.0937 415.143 74.1175 414.873 74.2332C414.604 74.349 414.38 74.5502 414.236 74.8059L411.871 79.3801C411.844 79.4315 411.8 79.4721 411.747 79.4954C411.694 79.5187 411.635 79.5232 411.579 79.5082L411.496 79.4807C411.464 79.4724 411.435 79.4577 411.409 79.4375C411.383 79.4174 411.362 79.3923 411.346 79.3636C411.33 79.335 411.321 79.3035 411.317 79.2709C411.314 79.2384 411.317 79.2055 411.327 79.1743L412.914 73.6852C412.992 73.4314 412.971 73.1575 412.854 72.9189C412.738 72.6803 412.535 72.4948 412.287 72.3998C412.155 72.3516 412.015 72.331 411.874 72.3393C411.734 72.3476 411.596 72.3846 411.471 72.448C411.345 72.5115 411.234 72.6 411.144 72.7082C411.054 72.8163 410.987 72.9418 410.947 73.0768L409.351 78.5659C409.332 78.6296 409.288 78.6833 409.23 78.7158C409.172 78.7482 409.104 78.7568 409.04 78.7397L408.784 78.662C408.726 78.6459 408.675 78.6091 408.642 78.5585C408.61 78.508 408.596 78.4471 408.605 78.3875L409.415 73.1226C409.457 72.8605 409.399 72.5923 409.252 72.3711C409.106 72.1499 408.881 71.9919 408.624 71.9287C408.486 71.8982 408.344 71.8963 408.206 71.9229C408.068 71.9495 407.937 72.0042 407.821 72.0835C407.704 72.1628 407.606 72.265 407.531 72.384C407.456 72.5029 407.406 72.6359 407.384 72.7749C407.384 72.7749 405.723 80.7341 405.362 81.96L403.468 79.6729C403.335 79.4346 403.114 79.2587 402.851 79.1833C402.589 79.1079 402.308 79.1392 402.069 79.2703V79.2703C401.831 79.4024 401.655 79.6234 401.579 79.8848C401.504 80.1463 401.535 80.4269 401.666 80.6655L404.164 86.8041C404.342 87.1289 405.051 87.3347 405.664 87.3667C411.35 89.4983 412.242 89.7819 413.829 90.2119L415.425 83.9223C415.888 82.1079 416.675 80.3922 417.749 78.8587L418.019 78.4744C418.099 78.3594 418.155 78.2291 418.183 78.0916C418.211 77.9541 418.21 77.8123 418.181 77.6751C418.152 77.5378 418.095 77.4081 418.013 77.2938C417.932 77.1795 417.828 77.0831 417.708 77.0107V77.0107Z" fill="#BF0830"/>
<path d="M361.742 111.72L358.701 119.496C358.701 119.496 357.562 122.09 359.739 123.32L357.132 128.251C356.459 129.495 357.557 129.468 358.659 130.355C359.275 130.854 359.965 131.253 360.704 131.54C363.339 132.569 365.539 131.151 366.143 130.25C366.747 129.349 367.931 124.367 367.931 124.367L368.919 122.08L372.121 112.973L361.742 111.72Z" fill="#BF0830"/>
<path d="M366.582 118.1C366.597 118.107 366.612 118.111 366.628 118.111C366.644 118.111 366.659 118.107 366.674 118.1C366.703 118.088 366.726 118.065 366.738 118.036C366.75 118.007 366.75 117.974 366.738 117.945C366.738 117.945 365.823 115.79 363.993 116.362C363.963 116.371 363.938 116.392 363.922 116.42C363.907 116.448 363.904 116.481 363.913 116.511C363.922 116.541 363.943 116.567 363.971 116.582C363.999 116.597 364.032 116.6 364.062 116.591C365.672 116.083 366.473 117.963 366.505 118.036C366.511 118.052 366.522 118.067 366.536 118.078C366.549 118.089 366.565 118.097 366.582 118.1V118.1Z" fill="#090028"/>
<path d="M362.314 115.677C362.33 115.684 362.347 115.688 362.364 115.688C362.381 115.688 362.399 115.684 362.414 115.677C362.441 115.662 362.461 115.637 362.47 115.607C362.478 115.577 362.475 115.545 362.46 115.517C362.433 115.462 361.733 114.145 360.85 114.465C360.821 114.476 360.797 114.498 360.784 114.526C360.77 114.554 360.768 114.586 360.777 114.616C360.787 114.646 360.809 114.67 360.837 114.684C360.865 114.698 360.898 114.699 360.928 114.689C361.623 114.447 362.245 115.604 362.254 115.627C362.268 115.65 362.289 115.668 362.314 115.677V115.677Z" fill="#090028"/>
<path d="M371.654 113.307L368.799 115.192C368.799 115.192 362.395 115.192 360.529 111.5C358.663 107.809 360.035 106.926 361.371 105.984C362.029 105.526 364.504 104.991 366.498 107.008C367.592 108.111 369.243 106.743 370.441 108.221C371.64 109.698 372.857 111.93 372.417 112.452C371.978 112.973 371.654 113.307 371.654 113.307Z" fill="#090028"/>
<path d="M371.971 112.163C371.971 112.163 374.556 113.032 374.309 115.749C374.062 118.466 372.612 119.372 372.305 120.086C371.999 120.799 370.576 125.904 367.273 124.202L369.506 115.736L371.967 112.991L371.971 112.163Z" fill="#090028"/>
<path d="M366.957 118.626C366.804 119.017 366.77 119.445 366.86 119.855C366.949 120.265 367.159 120.64 367.462 120.931C367.765 121.222 368.147 121.417 368.561 121.491C368.974 121.564 369.4 121.514 369.785 121.345C370.17 121.176 370.496 120.897 370.722 120.543C370.948 120.189 371.064 119.776 371.055 119.356C371.046 118.936 370.913 118.528 370.672 118.184C370.431 117.84 370.093 117.575 369.702 117.423C369.443 117.321 369.166 117.272 368.888 117.278C368.609 117.283 368.335 117.344 368.08 117.456C367.825 117.567 367.595 117.728 367.402 117.929C367.21 118.13 367.058 118.367 366.957 118.626V118.626Z" fill="#BF0830"/>
<path d="M368.605 120.667C368.785 120.732 368.982 120.736 369.165 120.68C369.348 120.623 369.508 120.507 369.62 120.352C369.741 120.21 369.811 120.032 369.818 119.846C369.826 119.661 369.771 119.478 369.661 119.327C369.542 119.168 369.379 119.049 369.191 118.983C369.004 118.918 368.801 118.91 368.609 118.961C368.76 118.783 368.969 118.664 369.199 118.627C369.529 118.61 369.854 118.712 370.114 118.915C370.126 118.922 370.141 118.924 370.154 118.922C370.168 118.919 370.18 118.911 370.189 118.9C370.198 118.889 370.203 118.876 370.202 118.862C370.202 118.848 370.197 118.834 370.187 118.824C369.908 118.6 369.556 118.49 369.199 118.513C369.039 118.539 368.885 118.599 368.75 118.689C368.614 118.778 368.499 118.896 368.413 119.034L368.289 119.208L368.486 119.121C368.674 119.038 368.884 119.02 369.083 119.07C369.282 119.121 369.459 119.237 369.584 119.4C369.675 119.531 369.721 119.689 369.714 119.849C369.706 120.008 369.646 120.161 369.542 120.283C369.446 120.419 369.308 120.519 369.15 120.568C368.991 120.618 368.82 120.614 368.664 120.557V120.557C368.657 120.555 368.65 120.553 368.642 120.553C368.635 120.553 368.627 120.555 368.621 120.558C368.614 120.561 368.608 120.565 368.603 120.571C368.597 120.576 368.594 120.582 368.591 120.59C368.587 120.597 368.585 120.604 368.585 120.612C368.584 120.62 368.586 120.628 368.589 120.636C368.592 120.643 368.597 120.65 368.602 120.655C368.608 120.661 368.615 120.665 368.623 120.667H368.605Z" fill="#AE253D"/>
<path d="M365.956 123.188C365.956 123.188 364.08 127.538 358.408 125.809L359.739 123.338C359.739 123.338 363.033 125.452 365.956 123.188Z" fill="#AE253D"/>
<path d="M358.801 118.128C358.801 118.128 356.02 123.123 359.455 124.683C364.363 126.911 365.969 124.225 367.181 122.012L369.121 117.195L369.505 115.727C368.995 115.991 368.581 116.411 368.325 116.925C367.771 118.041 366.294 121.042 365.951 121.092C365.457 121.129 359.78 117.922 358.801 118.128Z" fill="#090028"/>
<path d="M362.159 119.446C362.17 119.452 362.182 119.456 362.194 119.456C362.206 119.456 362.218 119.452 362.228 119.446C362.234 119.44 362.239 119.434 362.242 119.426C362.245 119.419 362.247 119.411 362.247 119.403C362.247 119.394 362.245 119.386 362.242 119.379C362.239 119.371 362.234 119.365 362.228 119.359L361.272 118.568L362.644 116.111C362.651 116.098 362.652 116.082 362.648 116.068C362.644 116.054 362.634 116.041 362.621 116.034C362.615 116.03 362.607 116.027 362.599 116.026C362.591 116.025 362.583 116.025 362.575 116.028C362.568 116.03 362.561 116.033 362.554 116.038C362.548 116.043 362.543 116.049 362.539 116.056L361.135 118.595L362.169 119.451L362.159 119.446Z" fill="#AE253D"/>
<path d="M362.593 120.85C362.566 120.85 360.444 119.936 360.444 119.936C360.444 119.936 360.366 120.924 361.153 121.258C361.939 121.591 362.593 120.85 362.593 120.85Z" fill="#FBFDFC"/>
<path d="M330.834 78.3919C330.834 78.3919 336.899 106.148 336.684 105.865C336.469 105.581 347.699 125.722 349.46 126.559C351.221 127.396 375.163 128.846 375.163 128.846L392.115 112.836L403.121 86.5386C405.975 86.6118 414.199 90.5365 414.199 90.5365L403.185 125.314C402.733 126.737 401.958 128.035 400.92 129.106C396.406 133.754 383.717 146.923 382.692 149.023C381.448 151.58 379.71 205.743 379.71 205.743C339.113 205.569 330.23 195.808 330.23 195.808C330.23 195.808 335.083 142.628 335.184 139.879C335.184 139.879 328.638 128.118 326.493 123.567C325.534 121.686 324.67 119.758 323.904 117.79C322.902 115.105 319.051 79.2976 319.051 79.2976C322.413 78.1037 330.834 78.3919 330.834 78.3919Z" fill="#FCE6CF"/>
<g style="mix-blend-mode:multiply">
<g style="mix-blend-mode:multiply" opacity="0.5">
<g style="mix-blend-mode:multiply" opacity="0.5">
<path d="M347.338 201.705C349.959 168.839 361.01 128.645 361.12 128.243L360.425 128.06C360.315 128.462 349.245 168.72 346.615 201.659L347.338 201.705Z" fill="#F7546C"/>
</g>
</g>
</g>
<path d="M361.34 128.091C360.653 128.952 359.888 129.747 359.053 130.465C346.186 142.623 322.546 128.695 327.875 150.793C329.554 147.664 329.737 142.87 333.245 140.761C333.739 140.467 334.283 140.269 334.851 140.176C344.054 138.662 357.04 140.89 361.34 128.091Z" fill="#090028"/>
<path d="M361.518 130.002L360.128 130.775L359.117 130.414L358.719 128.447L360.228 127.445L361.701 127.889L361.518 130.002Z" fill="#090028"/>
<path d="M361.02 127.057L358.458 125.717L357.219 127.542L358.737 129.77L360.773 128.141L361.519 130.465L367.703 128.352L367.374 126.581L361.02 127.057Z" fill="#F7546C"/>
<path d="M379.716 203.556C379.716 203.556 344.247 204.187 330.406 193.703L330.209 195.99C330.209 195.99 335.36 201.328 351.543 203.972C367.727 206.616 379.716 205.729 379.716 205.729V203.556Z" fill="#090028"/>
<path d="M351.024 201.209L350.366 203.785C350.337 203.9 350.263 204 350.162 204.062C350.06 204.125 349.938 204.145 349.821 204.119L343.276 202.66C343.214 202.646 343.156 202.621 343.105 202.584C343.054 202.547 343.011 202.5 342.978 202.446C342.946 202.392 342.926 202.332 342.918 202.269C342.91 202.207 342.915 202.144 342.933 202.083L343.687 199.54C343.721 199.429 343.795 199.334 343.895 199.275C343.995 199.217 344.114 199.199 344.227 199.224L350.677 200.647C350.737 200.66 350.795 200.685 350.845 200.72C350.896 200.756 350.938 200.801 350.971 200.854C351.003 200.906 351.025 200.965 351.034 201.026C351.043 201.087 351.04 201.15 351.024 201.209V201.209Z" fill="#BF0830"/>
<path d="M469.324 328.094H302.689C297.548 328.094 293.381 332.261 293.381 337.402V700.395C293.381 705.536 297.548 709.704 302.689 709.704H469.324C474.465 709.704 478.633 705.536 478.633 700.395V337.402C478.633 332.261 474.465 328.094 469.324 328.094Z" fill="#A22641"/>
<path d="M424.305 328.094H257.67C252.529 328.094 248.361 332.261 248.361 337.402V700.395C248.361 705.536 252.529 709.704 257.67 709.704H424.305C429.446 709.704 433.613 705.536 433.613 700.395V337.402C433.613 332.261 429.446 328.094 424.305 328.094Z" fill="#C43F5C"/>
<path d="M266.479 443.378V699.837C266.479 705.28 263.47 709.695 259.764 709.695H139.563C135.853 709.695 132.848 705.28 132.848 699.837V443.378C132.848 437.935 135.853 433.521 139.563 433.521H259.764C263.451 433.521 266.479 437.935 266.479 443.378Z" fill="#0B1249"/>
<path d="M234.003 443.378V699.837C234.003 705.28 230.998 709.695 227.288 709.695H107.086C103.381 709.695 100.371 705.28 100.371 699.837V443.378C100.371 437.935 103.381 433.521 107.086 433.521H227.288C230.998 433.521 234.003 437.935 234.003 443.378Z" fill="#1A2578"/>
<path d="M62.1731 433.953C64.5254 433.697 66.8204 433.06 68.9676 432.066L73.2905 435.901L76.4071 433.47L79.522 431.039L76.8411 425.913C78.3249 424.072 79.4987 422.001 80.3162 419.782L86.0868 419.439L86.5694 415.516L87.052 411.594L81.5377 409.86C81.2853 407.507 80.6502 405.211 79.6577 403.063L83.4931 398.741L81.0618 395.626L78.6406 392.511L73.5167 395.192C71.6743 393.707 69.6017 392.534 67.3808 391.718L67.0356 385.948L63.1148 385.465L59.1873 384.982L57.4531 390.495C55.1016 390.746 52.8067 391.379 50.6586 392.368L46.3357 388.533L43.2191 390.964L40.1026 393.395L42.7835 398.521C41.2986 400.363 40.1252 402.436 39.31 404.657L33.5393 405L33.0568 408.923L32.5625 412.845L38.0768 414.58C38.3298 416.932 38.9653 419.228 39.9585 421.376L36.1264 425.699L38.5577 428.814L40.9889 431.928L46.1145 429.256C47.9565 430.743 50.0291 431.918 52.2504 432.736L52.5855 438.507L56.508 438.989L60.4305 439.472L62.1731 433.953ZM45.952 417.488C44.9097 414.747 44.7038 411.759 45.3604 408.9C46.0169 406.042 47.5064 403.443 49.6405 401.431C51.7745 399.42 54.4572 398.086 57.3491 397.6C60.2411 397.113 63.2125 397.495 65.8874 398.697C68.5622 399.899 70.8204 401.868 72.3763 404.354C73.9322 406.84 74.7159 409.731 74.6283 412.663C74.5406 415.594 73.5856 418.433 71.8839 420.822C70.1823 423.21 67.8104 425.04 65.0685 426.081C61.394 427.474 57.3164 427.352 53.7319 425.741C50.1474 424.13 47.3491 421.162 45.952 417.488V417.488Z" fill="#D95F76"/>
<path d="M601.487 428.727C603.586 429.202 605.749 429.332 607.891 429.111L610.48 433.685L613.878 432.51L617.277 431.339L616.49 426.138C618.311 424.991 619.932 423.554 621.289 421.884L626.357 423.288L627.93 420.059L629.504 416.825L625.273 413.705C625.748 411.606 625.878 409.443 625.657 407.301L630.231 404.712L629.056 401.314L627.885 397.915L622.684 398.702C621.536 396.88 620.099 395.258 618.43 393.899L619.834 388.83L616.605 387.257L613.371 385.683L610.251 389.919C608.152 389.442 605.989 389.311 603.847 389.53L601.258 384.956L597.859 386.132L594.461 387.307L595.248 392.504C593.425 393.652 591.803 395.09 590.445 396.762L585.376 395.353L583.803 398.587L582.229 401.821L586.465 404.941C585.988 407.04 585.857 409.203 586.076 411.345L581.502 413.934L582.677 417.333L583.853 420.731L589.049 419.944C590.198 421.766 591.636 423.386 593.308 424.743L591.881 429.811L595.115 431.385L598.349 432.958L601.487 428.727ZM592.389 409.762C592.302 407.096 593.009 404.463 594.418 402.198C595.828 399.933 597.878 398.137 600.308 397.037C602.739 395.936 605.441 395.582 608.073 396.017C610.705 396.453 613.149 397.659 615.096 399.483C617.042 401.308 618.404 403.668 619.009 406.267C619.614 408.865 619.435 411.585 618.494 414.081C617.554 416.578 615.894 418.74 613.725 420.293C611.556 421.846 608.975 422.721 606.308 422.808C604.536 422.868 602.769 422.579 601.109 421.955C599.449 421.332 597.928 420.388 596.633 419.176C595.339 417.964 594.296 416.509 593.564 414.894C592.833 413.278 592.427 411.534 592.37 409.762H592.389Z" fill="#D95F76"/>
<path d="M136.531 324.463C139.595 326.288 142.938 327.6 146.425 328.346L148.168 336.882L154.115 336.772L160.061 336.658L161.479 328.058C164.935 327.18 168.225 325.743 171.218 323.804L178.486 328.612L182.603 324.321L186.72 320.03L181.642 312.949C183.465 309.882 184.777 306.539 185.526 303.051L194.061 301.312L193.947 295.366L193.837 289.419L185.238 288.006C184.361 284.548 182.924 281.257 180.984 278.263L185.791 270.994L181.5 266.878L177.205 262.761L170.124 267.843C167.06 266.017 163.718 264.706 160.23 263.959L158.538 255.364L152.591 255.479L146.645 255.593L145.227 264.188C141.771 265.068 138.482 266.504 135.488 268.442L128.22 263.639L124.103 267.93L119.986 272.22L125.064 279.301C123.241 282.368 121.93 285.711 121.185 289.2L112.645 290.938L112.759 296.885L112.873 302.831L121.468 304.249C122.347 307.707 123.784 310.998 125.722 313.992L120.915 321.261L125.21 325.378L129.501 329.494L136.531 324.463ZM131.879 289.923C133.106 285.676 135.564 281.888 138.943 279.039C142.322 276.189 146.47 274.405 150.863 273.913C155.256 273.421 159.696 274.242 163.622 276.274C167.548 278.305 170.783 281.455 172.919 285.325C175.055 289.195 175.995 293.611 175.621 298.015C175.247 302.42 173.575 306.614 170.817 310.069C168.059 313.523 164.339 316.082 160.127 317.422C155.914 318.762 151.399 318.823 147.153 317.597C141.458 315.952 136.65 312.112 133.786 306.922C130.921 301.733 130.236 295.618 131.879 289.923V289.923Z" fill="#D95F76"/>
<path d="M436.816 215.948C447.625 215.824 472.952 215.948 494.748 218.971C503.773 220.234 512.098 212.924 512.501 203.25C512.67 199.293 511.623 194.623 508.489 189.239C496.436 168.508 472.074 186.54 471.653 196.74C471.653 196.74 467.939 181.188 453.553 183.15C439.167 185.113 442.762 207.7 442.762 207.7C442.762 207.7 438.238 206.442 434.913 208.592C431.587 210.742 433.005 215.993 436.816 215.948Z" fill="white"/>
<path d="M121.358 184.894C132.158 184.473 157.462 183.878 179.35 186.321C188.407 187.332 196.526 179.798 196.668 170.119C196.723 166.158 195.547 161.519 192.272 156.222C179.652 135.83 155.793 154.525 155.651 164.735C155.651 164.735 151.534 149.265 137.185 151.648C122.835 154.031 127.121 176.482 127.121 176.482C127.121 176.482 122.547 175.352 119.299 177.589C116.052 179.825 117.566 185.04 121.358 184.894Z" fill="white"/>
<path d="M224.598 272.027C236.889 271.053 266.873 269.109 284.978 271.615C285.556 271.697 286.145 271.6 286.666 271.339C287.188 271.078 287.617 270.664 287.898 270.152C288.179 269.641 288.297 269.056 288.237 268.476C288.177 267.895 287.942 267.347 287.563 266.904C286.314 265.467 284.105 264.269 280.244 264.159C280.244 264.159 283.652 247.349 267.409 245.926C250.713 244.444 250.644 262.083 250.644 262.083C250.644 262.083 240.805 252.934 236.189 264.425C236.189 264.425 225.847 260.024 221.236 265.664C220.751 266.259 220.451 266.984 220.375 267.748C220.299 268.512 220.449 269.281 220.808 269.96C221.167 270.639 221.718 271.197 222.392 271.565C223.066 271.932 223.833 272.093 224.598 272.027Z" fill="white"/>
<path d="M589.831 500.068V699.45C589.831 705.113 586.885 709.705 583.254 709.705H465.49C461.858 709.705 458.912 705.131 458.912 699.45V500.068C458.912 494.405 461.858 489.812 465.49 489.812H583.254C586.885 489.812 589.831 494.405 589.831 500.068Z" fill="#1A2578"/>
<path d="M558.031 500.068V699.45C558.031 705.113 555.09 709.705 551.454 709.705H433.671C430.04 709.705 427.094 705.131 427.094 699.45V500.068C427.094 494.405 430.04 489.812 433.671 489.812H551.435C555.072 489.812 558.031 494.405 558.031 500.068Z" fill="#2836A5"/>
<path d="M173.397 571.158V642.15C173.397 647.594 170.278 652.008 166.426 652.008H41.6274C37.7759 652.008 34.6562 647.594 34.6562 642.15V571.158C34.6562 565.715 37.7759 561.301 41.6274 561.301H166.426C170.278 561.301 173.397 565.715 173.397 571.158Z" fill="#A22641"/>
<path d="M139.683 570.858V641.85C139.683 647.293 136.563 651.707 132.711 651.707H7.91254C4.06103 651.707 0.941406 647.293 0.941406 641.85V570.858C0.941406 565.414 4.06103 561 7.91254 561H132.711C136.563 561 139.683 565.414 139.683 570.858Z" fill="#C43F5C"/>
<path d="M190.069 358.237C190.069 358.237 191.409 369.137 189.845 369.622C188.281 370.107 193.925 381.927 196.67 374.814C197.635 372.33 194.255 358.347 190.028 356.215C185.801 354.083 190.069 358.237 190.069 358.237Z" fill="#090028"/>
<path d="M190.013 355.432C190.013 355.432 193.856 365.12 192.964 367.219C192.771 367.606 192.494 367.943 192.152 368.207C191.811 368.471 191.414 368.654 190.992 368.743L192.515 374.611L185.228 375.48L181.016 358.766C181.016 358.766 182.049 354.137 182.095 354.306C182.141 354.476 190.013 355.432 190.013 355.432Z" fill="#FF6160"/>
<path d="M189.839 364.315C189.827 364.316 189.815 364.313 189.804 364.307C189.794 364.3 189.787 364.29 189.784 364.278C189.784 364.241 189.784 364.205 189.784 364.191C190.054 364.031 190.109 363.477 190.122 363.276C189.649 363.089 189.269 362.722 189.066 362.256C188.858 361.748 188.804 361.19 188.91 360.651C188.91 360.619 188.947 360.605 188.97 360.619C188.984 360.628 188.994 360.641 189 360.657C189.006 360.672 189.006 360.689 189.002 360.705C188.909 361.209 188.96 361.729 189.148 362.206C189.247 362.427 189.389 362.626 189.566 362.792C189.742 362.957 189.95 363.086 190.177 363.171H190.223V363.23C190.223 363.262 190.223 364.058 189.834 364.273L189.839 364.315Z" fill="#AE253D"/>
<path d="M191.496 370.742L190.993 368.743C190.993 368.743 187.562 369.397 185.156 368.61C185.156 368.61 188.656 370.609 191.496 370.742Z" fill="#AE253D"/>
<path d="M184.359 362.101C184.344 362.108 184.328 362.111 184.311 362.111C184.295 362.111 184.279 362.108 184.263 362.101C184.248 362.093 184.235 362.082 184.224 362.068C184.213 362.055 184.205 362.039 184.2 362.023C184.195 362.006 184.194 361.988 184.196 361.971C184.199 361.954 184.204 361.938 184.213 361.923C184.213 361.923 185.444 359.814 187.246 360.642C187.276 360.658 187.3 360.684 187.312 360.716C187.323 360.749 187.323 360.784 187.31 360.816C187.303 360.832 187.292 360.846 187.279 360.858C187.266 360.87 187.251 360.879 187.234 360.885C187.218 360.891 187.2 360.894 187.182 360.893C187.165 360.892 187.147 360.887 187.132 360.88C185.553 360.152 184.488 361.978 184.442 362.055C184.422 362.081 184.392 362.097 184.359 362.101V362.101Z" fill="#090028"/>
<path d="M189.556 360.51C189.538 360.517 189.52 360.521 189.501 360.521C189.482 360.521 189.463 360.517 189.446 360.51C189.418 360.489 189.399 360.459 189.393 360.425C189.387 360.39 189.394 360.355 189.414 360.327C189.451 360.276 190.329 359.014 191.221 359.453C191.236 359.46 191.25 359.471 191.261 359.484C191.272 359.497 191.281 359.511 191.287 359.528C191.292 359.544 191.294 359.561 191.293 359.578C191.292 359.595 191.288 359.611 191.28 359.627C191.273 359.642 191.262 359.656 191.249 359.667C191.237 359.678 191.222 359.687 191.206 359.692C191.19 359.698 191.172 359.7 191.155 359.699C191.138 359.698 191.122 359.694 191.106 359.686C190.429 359.352 189.638 360.468 189.629 360.478C189.608 360.495 189.583 360.506 189.556 360.51Z" fill="#090028"/>
<path d="M188.219 365.33C188.26 365.33 190.812 365.005 190.812 365.005C190.812 365.005 190.593 366.094 189.646 366.212C188.699 366.331 188.219 365.33 188.219 365.33Z" fill="#FBFDFC"/>
<path d="M186.984 356.356L184.697 354.375C184.697 354.375 187.872 355.45 187.661 355.573C187.406 355.807 187.179 356.069 186.984 356.356V356.356Z" fill="#FF6160"/>
<path d="M181.573 356.448C181.573 356.448 182.945 360.075 192.094 358.703C192.094 358.703 192.862 352.669 185.914 352.363C178.966 352.056 179.556 357.189 179.679 357.111C179.803 357.033 181.573 356.448 181.573 356.448Z" fill="#090028"/>
<path d="M183.403 358.227C182.816 359.795 182.342 361.403 181.985 363.039C181.985 363.039 188.696 378.002 182.443 378.555L181.363 378.798C176.007 379.992 176.963 367.563 175.595 361.416C174.744 357.564 178.481 352.56 182.068 354.179C185.654 355.798 183.403 358.227 183.403 358.227Z" fill="#090028"/>
<path d="M183.97 364.59C184.07 364.984 184.05 365.4 183.914 365.783C183.778 366.167 183.531 366.501 183.204 366.744C182.878 366.987 182.487 367.128 182.08 367.149C181.674 367.17 181.27 367.07 180.921 366.862C180.571 366.653 180.291 366.346 180.116 365.979C179.941 365.611 179.879 365.2 179.937 364.797C179.996 364.394 180.173 364.018 180.445 363.716C180.718 363.413 181.074 363.199 181.468 363.098C181.73 363.032 182.003 363.018 182.271 363.057C182.538 363.096 182.796 363.187 183.028 363.325C183.261 363.464 183.463 363.647 183.625 363.864C183.787 364.081 183.904 364.327 183.97 364.59V364.59Z" fill="#FF6160"/>
<path d="M182.136 366.375C181.953 366.416 181.761 366.397 181.59 366.319C181.419 366.241 181.278 366.11 181.189 365.945C181.089 365.793 181.042 365.611 181.057 365.43C181.072 365.248 181.147 365.077 181.271 364.943C181.403 364.805 181.572 364.71 181.757 364.667C181.942 364.625 182.136 364.638 182.314 364.705C182.193 364.527 182.013 364.398 181.806 364.339C181.492 364.278 181.165 364.336 180.892 364.504C180.877 364.514 180.859 364.517 180.842 364.514C180.825 364.51 180.81 364.5 180.8 364.486C180.79 364.471 180.787 364.453 180.79 364.436C180.794 364.419 180.804 364.404 180.818 364.394C181.115 364.208 181.472 364.143 181.816 364.211C181.969 364.255 182.111 364.332 182.232 364.436C182.352 364.541 182.449 364.67 182.516 364.815L182.625 365.021L182.424 364.902C182.254 364.805 182.057 364.766 181.862 364.79C181.668 364.814 181.487 364.9 181.344 365.034C181.242 365.148 181.18 365.292 181.168 365.444C181.155 365.596 181.193 365.748 181.276 365.876C181.352 366.018 181.473 366.131 181.621 366.198C181.768 366.264 181.933 366.279 182.09 366.242C182.105 366.242 182.12 366.246 182.133 366.255C182.145 366.264 182.154 366.277 182.158 366.292C182.163 366.307 182.162 366.322 182.156 366.336C182.15 366.351 182.14 366.362 182.127 366.37L182.136 366.375Z" fill="#AE253D"/>
<path d="M190.014 353.639C190.014 353.639 193.897 356.182 195.425 365.783L191.075 356.987L190.014 353.639Z" fill="#090028"/>
<path d="M203.228 496.667L191.473 492.99L195.777 479.212L208.009 481.261L203.228 496.667Z" fill="#FF6160"/>
<path d="M199.536 458.082L204.984 447.009L193.258 441.239L187.81 452.312L199.536 458.082Z" fill="#FF6160"/>
<path d="M184.953 437.983C185.223 437.983 195.195 442.397 195.195 442.397L198.397 444.474C198.397 444.474 193.539 477.55 192.638 486.383C192.638 486.383 199.669 491.341 206.786 491.52C206.786 491.52 221.479 440.311 221.479 433.807C221.479 427.302 190.232 411.892 190.232 411.892L176.015 420.098C176.015 420.098 154.649 421.854 149.736 425.184C144.824 428.514 187.876 448.019 187.876 448.019L184.953 437.983Z" fill="#FCE6CF"/>
<path d="M195.936 441.162C195.936 441.162 171.816 426.781 163.528 424.539C155.239 422.298 149.283 424.192 148.382 426.826C147.481 429.461 146.58 436.83 148.382 439.264C150.185 441.697 181.642 453.325 188.851 455.306C188.851 455.287 195.268 447.831 195.936 441.162Z" fill="#FCE6CF"/>
<path d="M148.566 426.635C148.532 426.641 148.498 426.641 148.465 426.635C148.411 426.607 148.37 426.56 148.351 426.503C148.331 426.446 148.334 426.383 148.36 426.328C148.986 425.061 151.26 423.904 155.121 422.888C158.672 422.013 162.274 421.361 165.907 420.935C165.961 420.935 171.533 420.254 171.853 420.478C171.903 420.511 171.938 420.563 171.95 420.622C171.962 420.682 171.95 420.743 171.917 420.793C171.887 420.835 171.845 420.866 171.797 420.882C171.748 420.897 171.696 420.897 171.647 420.88C170.504 420.707 150.656 422.669 148.749 426.516C148.73 426.549 148.704 426.578 148.672 426.599C148.64 426.619 148.604 426.632 148.566 426.635Z" fill="#090028"/>
<path d="M193.531 448.317C193.487 448.316 193.445 448.304 193.408 448.28C193.357 448.248 193.321 448.196 193.308 448.137C193.295 448.078 193.306 448.016 193.339 447.965C194.658 445.841 195.475 443.444 195.727 440.957C185.104 434.085 173.909 428.141 162.266 423.191C162.219 423.162 162.184 423.118 162.167 423.065C162.15 423.013 162.153 422.956 162.175 422.905C162.196 422.855 162.236 422.813 162.285 422.789C162.335 422.765 162.391 422.76 162.445 422.775C182.219 431.232 195.955 440.559 196.093 440.655L196.198 440.724V440.852C195.969 443.465 195.123 445.986 193.728 448.207C193.707 448.241 193.678 448.269 193.644 448.288C193.609 448.307 193.571 448.317 193.531 448.317V448.317Z" fill="#090028"/>
<path d="M166.561 424.984C166.526 424.983 166.491 424.975 166.46 424.96C166.428 424.945 166.4 424.924 166.378 424.897C165.657 424.08 164.813 423.381 163.875 422.825C163.83 422.792 163.798 422.742 163.786 422.687C163.774 422.632 163.784 422.574 163.812 422.525C163.841 422.476 163.886 422.439 163.94 422.422C163.994 422.405 164.053 422.408 164.104 422.431C165.092 423.015 165.982 423.751 166.739 424.613C166.776 424.661 166.792 424.722 166.784 424.782C166.777 424.842 166.746 424.896 166.698 424.934C166.659 424.965 166.611 424.983 166.561 424.984V424.984Z" fill="#090028"/>
<path d="M216.178 457.667H216.123C216.064 457.653 216.014 457.617 215.982 457.565C215.95 457.514 215.94 457.452 215.954 457.393C216.004 457.196 220.675 437.861 221.255 434.522C221.814 431.32 214.943 426.64 214.852 426.595C214.823 426.58 214.798 426.559 214.778 426.533C214.758 426.508 214.743 426.479 214.735 426.447C214.728 426.416 214.726 426.383 214.732 426.352C214.738 426.32 214.75 426.29 214.768 426.263C214.787 426.236 214.81 426.214 214.838 426.197C214.865 426.18 214.896 426.169 214.928 426.165C214.96 426.161 214.993 426.164 215.024 426.173C215.055 426.182 215.083 426.198 215.108 426.22C215.4 426.416 222.289 431.114 221.681 434.6C221.1 437.943 216.425 457.297 216.375 457.471C216.368 457.521 216.345 457.567 216.31 457.602C216.274 457.638 216.228 457.661 216.178 457.667V457.667Z" fill="#090028"/>
<path d="M201.242 446.424C201.198 446.424 201.154 446.411 201.118 446.387L195.569 442.842C195.544 442.826 195.522 442.805 195.504 442.781C195.487 442.756 195.474 442.728 195.468 442.699C195.462 442.669 195.461 442.639 195.467 442.609C195.473 442.58 195.484 442.551 195.501 442.526C195.517 442.501 195.537 442.48 195.562 442.463C195.586 442.446 195.613 442.434 195.642 442.427C195.671 442.421 195.701 442.42 195.73 442.425C195.759 442.431 195.787 442.442 195.812 442.458L201.365 446.003C201.416 446.036 201.452 446.087 201.465 446.146C201.477 446.206 201.466 446.267 201.434 446.318C201.414 446.351 201.385 446.378 201.352 446.397C201.318 446.415 201.28 446.424 201.242 446.424V446.424Z" fill="#090028"/>
<path d="M206.785 491.75H206.758C206.346 491.695 196.635 490.345 192.481 486.558L192.395 486.476V486.357L196.589 455.252L197.833 444.196C197.835 444.166 197.844 444.136 197.858 444.11C197.872 444.083 197.891 444.059 197.915 444.04C197.939 444.021 197.966 444.008 197.995 444C198.024 443.992 198.055 443.99 198.085 443.995C198.145 444.002 198.2 444.032 198.237 444.079C198.275 444.126 198.293 444.186 198.286 444.246L197.042 455.311L192.866 486.288C196.982 489.925 206.707 491.278 206.803 491.292C206.833 491.296 206.862 491.305 206.889 491.32C206.915 491.335 206.938 491.355 206.956 491.378C206.975 491.402 206.988 491.43 206.995 491.459C207.003 491.488 207.005 491.519 207 491.548C206.993 491.602 206.968 491.651 206.928 491.687C206.889 491.724 206.839 491.746 206.785 491.75Z" fill="#090028"/>
<path d="M151.841 439.689C151.793 439.689 151.746 439.673 151.709 439.643C149.11 437.731 149.129 436.08 149.133 436.011C149.133 435.981 149.139 435.951 149.151 435.924C149.163 435.896 149.181 435.871 149.202 435.851C149.224 435.83 149.25 435.814 149.278 435.804C149.307 435.794 149.337 435.79 149.367 435.791C149.396 435.792 149.426 435.799 149.453 435.811C149.48 435.823 149.505 435.84 149.525 435.862C149.546 435.884 149.562 435.909 149.572 435.937C149.583 435.965 149.587 435.995 149.586 436.025C149.586 436.048 149.586 437.525 151.978 439.277C152.017 439.306 152.045 439.346 152.06 439.392C152.074 439.438 152.073 439.487 152.058 439.532C152.043 439.578 152.014 439.617 151.975 439.646C151.936 439.674 151.889 439.689 151.841 439.689Z" fill="#090028"/>
<path d="M154.16 439.259C154.123 439.258 154.087 439.248 154.055 439.231C151.205 437.722 150.986 436.084 150.976 436.029C150.973 436 150.975 435.97 150.983 435.941C150.99 435.913 151.004 435.886 151.022 435.862C151.04 435.839 151.063 435.819 151.089 435.805C151.115 435.79 151.144 435.781 151.173 435.778C151.233 435.771 151.293 435.788 151.341 435.825C151.389 435.861 151.42 435.915 151.429 435.974C151.429 436.002 151.663 437.461 154.27 438.843C154.323 438.872 154.362 438.921 154.38 438.979C154.397 439.037 154.393 439.099 154.366 439.154C154.344 439.188 154.314 439.216 154.277 439.234C154.241 439.253 154.201 439.261 154.16 439.259Z" fill="#090028"/>
<path d="M192.812 392.714L188.37 374.069H176.276C174.991 374.069 173.22 374.916 173.147 374.952C168.289 377.537 154.932 392.256 155.6 401.533C156.204 409.954 168.326 408.28 180.406 410.224L183.091 399.058L178.723 397.887L192.812 392.714Z" fill="#D95F76"/>
<path d="M188.805 395.468V374.069H200.904C202.189 374.069 203.959 374.916 204.032 374.952C208.89 377.537 223.916 392.723 223.244 402C222.636 410.421 208.465 410.082 201.823 412.132L198.132 398.779L198.456 398.102L188.805 395.468Z" fill="#D95F76"/>
<path d="M208.414 398.396L208.263 421.724C208.263 421.724 187.135 425.585 168.326 420.581C167.868 420.457 169.208 401.291 169.208 401.291C169.208 401.291 169.208 397.577 171.171 396.424C173.133 395.271 189.129 388.19 189.509 388.19C189.889 388.19 208.414 398.396 208.414 398.396Z" fill="#D95F76"/>
<path d="M188.159 380.556C188.22 380.556 188.278 380.532 188.321 380.489C188.364 380.446 188.388 380.388 188.388 380.328C188.388 380.267 188.364 380.209 188.321 380.166C188.278 380.123 188.22 380.099 188.159 380.099C181.216 379.641 178.951 374.907 178.928 374.857C178.916 374.829 178.898 374.805 178.877 374.784C178.855 374.764 178.829 374.748 178.801 374.738C178.773 374.728 178.743 374.723 178.713 374.725C178.683 374.726 178.654 374.734 178.627 374.747C178.571 374.772 178.528 374.818 178.507 374.874C178.486 374.931 178.487 374.994 178.512 375.049C178.535 375.099 180.905 380.081 188.118 380.538L188.159 380.556Z" fill="#090028"/>
<path d="M195.813 374.069H180.512C180.512 374.069 183.256 378.859 188.562 378.84C190.991 378.831 193.585 377.939 195.813 374.069Z" fill="#FF6160"/>
<path d="M186.384 404.931C185.415 403.948 186.311 402.699 186.311 402.699C185.95 401.208 186.348 400.558 186.348 400.558C186.348 400.558 190.433 401.77 192.752 402.626C194.06 402.429 194.522 401.789 194.522 401.789L194.554 401.844C194.581 400.714 194.613 399.291 194.613 399.136C194.613 398.861 195.043 398.431 195.72 399.287C196.433 400.305 197.094 401.358 197.701 402.443L201.081 400.458L203.826 409.967C203.826 409.967 195.629 411.129 194.366 411.216C193.104 411.303 188.713 410.274 187.404 409.19C186.096 408.106 186.38 407.141 186.38 407.141C186.109 406.836 185.959 406.443 185.96 406.035C185.961 405.627 186.112 405.234 186.384 404.931Z" fill="#F78C63"/>
<path d="M195.295 398.637V401.596C195.006 401.982 194.618 402.283 194.172 402.467C193.726 402.65 193.238 402.71 192.761 402.639L191.494 402.182L192.491 397.9L195.295 398.637Z" fill="#AE253D"/>
<path d="M189.088 404.158C189.121 404.158 189.152 404.148 189.178 404.129C189.205 404.11 189.224 404.084 189.235 404.053C189.241 404.034 189.244 404.014 189.242 403.993C189.24 403.973 189.235 403.954 189.225 403.936C189.216 403.918 189.203 403.902 189.187 403.889C189.172 403.876 189.154 403.867 189.134 403.861C188.186 403.505 187.268 403.072 186.39 402.566C186.354 402.546 186.313 402.541 186.273 402.551C186.234 402.561 186.2 402.586 186.179 402.621C186.169 402.639 186.163 402.658 186.161 402.678C186.159 402.697 186.161 402.717 186.166 402.737C186.172 402.756 186.181 402.774 186.193 402.789C186.206 402.805 186.221 402.818 186.239 402.827C187.133 403.348 188.071 403.79 189.043 404.149L189.088 404.158Z" fill="#AE253D"/>
<path d="M189.089 406.083C189.124 406.084 189.159 406.072 189.187 406.049C189.214 406.026 189.233 405.995 189.24 405.96C189.246 405.92 189.237 405.879 189.214 405.845C189.191 405.812 189.156 405.789 189.116 405.781C188.187 405.589 187.293 405.258 186.463 404.798C186.428 404.778 186.386 404.772 186.347 404.782C186.307 404.793 186.274 404.818 186.253 404.853C186.233 404.887 186.227 404.928 186.238 404.967C186.248 405.006 186.273 405.038 186.307 405.059C187.163 405.54 188.09 405.884 189.052 406.079L189.089 406.083Z" fill="#AE253D"/>
<path d="M188.75 408.279C188.786 408.278 188.821 408.264 188.848 408.239C188.875 408.214 188.892 408.181 188.896 408.145C188.899 408.108 188.89 408.072 188.869 408.042C188.848 408.012 188.817 407.991 188.782 407.982C187.965 407.781 187.184 407.454 186.467 407.012C186.433 406.991 186.392 406.984 186.353 406.993C186.314 407.001 186.279 407.025 186.257 407.058C186.246 407.075 186.239 407.094 186.235 407.113C186.231 407.133 186.232 407.153 186.236 407.173C186.24 407.192 186.248 407.211 186.26 407.227C186.271 407.244 186.286 407.258 186.303 407.268C187.049 407.732 187.864 408.073 188.718 408.279H188.75Z" fill="#AE253D"/>
<path d="M198.652 400.632L203.304 399.475C203.304 399.475 205.93 405.984 205.93 406.199C205.93 406.414 204.617 412.145 204.453 412.145C203.87 411.656 203.317 411.132 202.797 410.576L198.652 400.632Z" fill="#4CB7D8"/>
<path d="M207.189 396.392L209.476 396.027C209.548 396.013 209.612 395.972 209.655 395.913C209.697 395.853 209.715 395.779 209.705 395.706C209.692 395.634 209.652 395.569 209.592 395.526C209.532 395.483 209.457 395.466 209.384 395.478L207.45 395.789L203.127 389.138C203.108 389.107 203.083 389.08 203.053 389.059C203.024 389.038 202.99 389.024 202.955 389.016C202.919 389.008 202.882 389.008 202.847 389.015C202.811 389.021 202.777 389.035 202.747 389.055C202.717 389.075 202.691 389.1 202.67 389.13C202.65 389.159 202.635 389.193 202.627 389.228C202.62 389.263 202.619 389.3 202.626 389.335C202.632 389.371 202.645 389.405 202.665 389.435L207.189 396.392Z" fill="#090028"/>
<path d="M206.347 380.153C206.31 380.152 206.274 380.143 206.242 380.127C206.209 380.11 206.181 380.086 206.159 380.057C204.439 377.582 202.957 377.578 202.957 377.578C202.897 377.578 202.838 377.553 202.796 377.511C202.753 377.468 202.729 377.409 202.729 377.349C202.729 377.288 202.753 377.23 202.796 377.187C202.838 377.144 202.897 377.12 202.957 377.12C203.04 377.12 204.686 377.152 206.521 379.791C206.538 379.816 206.55 379.844 206.556 379.873C206.563 379.902 206.563 379.932 206.557 379.962C206.552 379.991 206.541 380.019 206.524 380.044C206.507 380.069 206.486 380.091 206.461 380.107C206.428 380.133 206.389 380.149 206.347 380.153V380.153Z" fill="#090028"/>
<path d="M205.857 382.472C205.815 382.472 205.773 382.461 205.737 382.439C205.701 382.417 205.671 382.386 205.651 382.349C204.334 379.696 202.875 379.435 202.861 379.43C202.8 379.422 202.746 379.39 202.709 379.341C202.672 379.292 202.656 379.23 202.664 379.17C202.673 379.109 202.705 379.054 202.754 379.017C202.803 378.98 202.864 378.964 202.925 378.973C202.994 378.973 204.627 379.252 206.063 382.138C206.076 382.165 206.084 382.195 206.086 382.225C206.088 382.255 206.084 382.285 206.074 382.313C206.064 382.342 206.049 382.368 206.029 382.391C206.009 382.413 205.985 382.432 205.958 382.445C205.927 382.463 205.893 382.472 205.857 382.472Z" fill="#090028"/>
<path d="M193.008 401.035C192.972 401.045 192.934 401.041 192.901 401.024C192.868 401.007 192.842 400.979 192.829 400.945C192.815 400.91 192.815 400.872 192.828 400.837C192.84 400.803 192.865 400.774 192.898 400.756C193.754 400.213 194.565 399.601 195.322 398.927C195.337 398.913 195.355 398.903 195.374 398.897C195.393 398.89 195.413 398.888 195.433 398.889C195.453 398.89 195.472 398.895 195.49 398.904C195.508 398.913 195.524 398.925 195.537 398.94C195.551 398.955 195.561 398.973 195.567 398.992C195.574 399.011 195.576 399.031 195.575 399.051C195.574 399.071 195.569 399.09 195.56 399.108C195.551 399.126 195.539 399.142 195.524 399.155C194.755 399.847 193.928 400.473 193.054 401.026L193.008 401.035Z" fill="#AE253D"/>
<path d="M193.392 402.919C193.357 402.927 193.321 402.921 193.289 402.905C193.257 402.888 193.232 402.861 193.218 402.828C193.203 402.791 193.203 402.75 193.219 402.713C193.234 402.676 193.264 402.647 193.301 402.631C194.171 402.251 194.98 401.74 195.697 401.117C195.712 401.104 195.729 401.093 195.748 401.086C195.767 401.08 195.787 401.076 195.807 401.077C195.827 401.078 195.846 401.083 195.865 401.091C195.883 401.1 195.899 401.112 195.912 401.126C195.926 401.141 195.936 401.158 195.943 401.177C195.95 401.196 195.953 401.216 195.952 401.236C195.952 401.256 195.947 401.275 195.938 401.293C195.93 401.312 195.918 401.328 195.903 401.341C195.161 401.989 194.323 402.518 193.42 402.91L193.392 402.919Z" fill="#AE253D"/>
<path d="M194.175 405.002C194.141 405.008 194.106 405.003 194.076 404.987C194.045 404.971 194.02 404.946 194.006 404.915C193.997 404.896 193.993 404.877 193.992 404.857C193.992 404.836 193.995 404.816 194.002 404.798C194.01 404.779 194.021 404.762 194.034 404.747C194.048 404.733 194.065 404.721 194.084 404.713C194.842 404.347 195.54 403.866 196.151 403.286C196.165 403.271 196.181 403.26 196.2 403.252C196.218 403.243 196.238 403.239 196.259 403.239C196.279 403.239 196.299 403.243 196.317 403.252C196.336 403.26 196.352 403.271 196.366 403.286C196.38 403.3 196.392 403.317 196.399 403.335C196.407 403.354 196.411 403.374 196.411 403.394C196.411 403.414 196.407 403.434 196.399 403.452C196.392 403.47 196.38 403.487 196.366 403.501C195.728 404.105 195 404.605 194.207 404.983L194.175 405.002Z" fill="#AE253D"/>
<path d="M173.393 396.239L171.074 396.358C171.001 396.361 170.929 396.335 170.874 396.285C170.82 396.236 170.786 396.167 170.782 396.093C170.78 396.057 170.785 396.02 170.798 395.986C170.81 395.952 170.829 395.92 170.854 395.893C170.878 395.867 170.908 395.845 170.941 395.83C170.975 395.815 171.01 395.806 171.047 395.805L173.009 395.704L175.859 388.303C175.891 388.242 175.944 388.195 176.008 388.171C176.073 388.147 176.144 388.147 176.208 388.172C176.272 388.197 176.324 388.245 176.355 388.306C176.386 388.368 176.394 388.438 176.376 388.504L173.393 396.239Z" fill="#090028"/>
<path d="M183.092 399.067L180.699 410.503C180.699 410.503 175.777 406.501 175.777 406.061C175.777 405.622 177.337 400.293 177.502 400.193C177.667 400.092 183.092 399.067 183.092 399.067Z" fill="#4CB7D8"/>
<path d="M180.858 410.82H180.616C176.337 410.402 172.147 409.338 168.188 407.663C168.154 407.649 168.124 407.629 168.099 407.603C168.073 407.577 168.053 407.547 168.04 407.513C168.026 407.479 168.019 407.443 168.02 407.407C168.02 407.371 168.027 407.335 168.041 407.302C168.055 407.269 168.076 407.238 168.102 407.213C168.128 407.188 168.158 407.168 168.192 407.154C168.225 407.14 168.261 407.133 168.297 407.134C168.334 407.134 168.369 407.141 168.403 407.156C172.232 408.765 176.275 409.807 180.405 410.248L182.455 399.448L173.11 396.246C173.04 396.222 172.984 396.171 172.952 396.105C172.92 396.039 172.916 395.963 172.94 395.894C172.965 395.825 173.015 395.768 173.081 395.736C173.147 395.705 173.223 395.7 173.293 395.725L183.091 399.077L180.858 410.82Z" fill="#090028"/>
<path d="M199.871 410.82H200.113C204.392 410.402 208.582 409.338 212.542 407.663C212.575 407.649 212.605 407.629 212.631 407.603C212.656 407.577 212.676 407.547 212.69 407.513C212.703 407.479 212.71 407.443 212.71 407.407C212.709 407.371 212.702 407.335 212.688 407.302C212.674 407.269 212.653 407.238 212.627 407.213C212.602 407.188 212.571 407.168 212.538 407.154C212.504 407.14 212.468 407.133 212.432 407.134C212.396 407.134 212.36 407.141 212.327 407.156C208.498 408.765 204.454 409.807 200.324 410.248L198.274 399.448L207.62 396.246C207.689 396.222 207.745 396.171 207.777 396.105C207.809 396.039 207.813 395.963 207.789 395.894C207.765 395.825 207.714 395.768 207.648 395.736C207.582 395.705 207.506 395.7 207.437 395.725L197.639 399.077L199.871 410.82Z" fill="#090028"/>
<path d="M212.627 507.76L189.299 496.553L191.54 491.892C191.54 491.892 194.312 490.469 196.343 492.853C196.343 492.853 198.946 497.427 203.968 495.812L210.729 503.639C210.729 503.639 213.391 506.173 212.627 507.76Z" fill="#E2F2F1"/>
<path d="M212.001 509.409L188.406 498.069C188.358 498.045 188.315 498.013 188.279 497.973C188.244 497.933 188.216 497.887 188.199 497.836C188.181 497.786 188.173 497.733 188.176 497.679C188.179 497.626 188.193 497.574 188.216 497.525L188.937 496.025C188.984 495.927 189.067 495.853 189.169 495.817C189.271 495.781 189.383 495.787 189.48 495.834L213.075 507.174C213.317 507.29 213.502 507.498 213.591 507.751C213.68 508.004 213.664 508.282 213.548 508.523L213.35 508.936C213.234 509.177 213.026 509.363 212.773 509.452C212.521 509.54 212.243 509.525 212.001 509.409Z" fill="#090028"/>
<path d="M168.656 423.182H210.793C212.18 423.182 213.305 422.057 213.305 420.67V397.982C213.305 396.595 212.18 395.471 210.793 395.471H168.656C167.269 395.471 166.144 396.595 166.144 397.982V420.67C166.144 422.057 167.269 423.182 168.656 423.182Z" fill="#2A1968"/>
<path d="M187.359 406.99C187.359 406.617 187.47 406.253 187.677 405.943C187.884 405.633 188.178 405.392 188.523 405.249C188.867 405.106 189.246 405.069 189.612 405.142C189.977 405.214 190.313 405.394 190.577 405.657C190.84 405.921 191.02 406.257 191.092 406.622C191.165 406.988 191.128 407.367 190.985 407.711C190.842 408.056 190.601 408.35 190.291 408.557C189.981 408.764 189.617 408.875 189.244 408.875C188.996 408.875 188.751 408.827 188.522 408.732C188.293 408.638 188.085 408.499 187.91 408.324C187.735 408.149 187.596 407.941 187.502 407.712C187.407 407.483 187.359 407.238 187.359 406.99V406.99Z" fill="white"/>
<g filter="url(#filter0_d_404_14238)">
<path d="M545.375 449.103L541.592 450.736L537.383 452.73C537.383 452.73 530.851 453.864 530.755 453.846L531.3 454.816C523.194 455.818 497.642 456.865 493.448 457.336C490.918 457.615 488.489 460.762 486.957 463.214L489.034 464.618C489.034 464.618 511.347 463.635 511.301 464.106C511.301 464.252 510.661 466.466 509.682 469.366C523.464 470.281 542.763 470.199 546.344 464.518C549.286 459.861 546.418 453.174 545.375 449.103Z" fill="white"/>
<path d="M459.297 548.656L476.254 548.884L476.496 533.035L459.608 530.944L459.297 548.656Z" fill="white"/>
<path d="M511.424 492.731C511.424 492.731 526.02 492.974 536.248 492.622C539.533 492.512 542.456 492.741 544.185 492.356C551.307 490.774 553.059 468.547 544.976 454.93C536.893 441.312 508.602 483.126 508.602 483.126L511.424 492.731Z" fill="#BF0830"/>
<path d="M485.012 549.255L501.964 549.489L502.211 533.634L485.323 531.544L485.012 549.255Z" fill="white"/>
<path d="M495.707 462.985C495.707 462.985 459.854 465.272 458.82 469.417C457.786 473.561 454.822 517.579 457.036 536.356C457.036 536.356 470.64 537.294 477.163 535.716L478.75 489.928L489.486 488.693L514.086 459.12L495.707 462.985Z" fill="#890421"/>
<path d="M512.254 462C512.254 462 484.602 469.804 483.569 473.943C482.535 478.083 479.589 517.367 481.808 536.153C481.808 536.153 496.445 536.99 502.94 535.412L504.692 492.217L511 492.437L526.301 465.518L512.254 462Z" fill="#BF0830"/>
<path d="M494.843 536.964C501.307 536.964 503.612 535.994 503.722 535.944L503.864 535.88L505.561 492.425L502.889 493.683L503.1 494.14L505.03 493.225L503.379 535.532C502.679 535.775 499.326 536.74 491.408 536.374V536.873C492.652 536.941 493.801 536.964 494.843 536.964Z" fill="#090028"/>
<path d="M500.903 527.597C501.594 524.935 501.791 498.98 501.818 497.864H501.311C501.311 498.134 501.105 524.852 500.428 527.464L500.903 527.597Z" fill="#090028"/>
<path d="M475.21 490.903C478.485 489.841 482.986 489.681 483.045 489.681V489.183C482.999 489.183 478.421 489.347 475.072 490.427L475.21 490.903Z" fill="#090028"/>
<path d="M467.833 536.871C470.98 536.9 474.122 536.593 477.205 535.956L477.393 535.911L478.994 489.61L476.949 491.257L477.26 491.646L478.454 490.685L476.903 535.513C473.757 536.136 470.554 536.425 467.348 536.373V536.871H467.833Z" fill="#090028"/>
<path d="M474.78 528.562C475.466 524.541 474.812 497.338 474.78 496.181H474.281C474.281 496.464 474.963 524.495 474.281 528.47L474.78 528.562Z" fill="#090028"/>
<path d="M522.407 493.197C528.774 493.197 536.409 492.982 544.995 492.333L544.958 491.839C519.383 493.765 502.23 491.839 502.061 491.839L502.006 492.333C502.116 492.347 509.764 493.197 522.407 493.197Z" fill="#090028"/>
<path d="M513.66 448.365C513.166 448.365 493.305 456.901 493.305 456.901L497.307 464.558L508.455 462.111L513.66 448.365Z" fill="#2A1968"/>
<path d="M542.428 412.769C542.428 412.769 550.872 412.471 554.906 414.758C560.921 418.166 558.776 437.689 558.776 437.689C558.776 437.689 553.667 434.899 553.356 433.97C553.045 433.042 542.428 412.769 542.428 412.769Z" fill="#2A1968"/>
<path d="M544.478 455.145H544.446L538.235 456.567C538.174 456.581 538.11 456.571 538.057 456.538C538.005 456.505 537.967 456.452 537.953 456.391C537.939 456.331 537.95 456.267 537.983 456.214C538.016 456.161 538.069 456.124 538.129 456.11L544.346 454.687C544.375 454.681 544.406 454.68 544.435 454.685C544.465 454.69 544.494 454.701 544.519 454.717C544.545 454.733 544.567 454.754 544.584 454.779C544.601 454.804 544.614 454.832 544.62 454.861C544.637 454.918 544.631 454.978 544.605 455.031C544.579 455.083 544.533 455.124 544.478 455.145V455.145Z" fill="#090028"/>
<path d="M547.726 451.457L543.943 453.095L539.735 455.089C539.735 455.089 533.203 456.223 533.107 456.201L533.651 457.175C525.546 458.177 499.994 459.224 495.799 459.691C493.27 459.974 490.841 463.117 489.309 465.573L491.385 466.977C491.385 466.977 513.698 465.994 513.653 466.461C513.653 466.611 513.008 468.825 512.033 471.726C525.811 472.64 545.11 472.558 548.696 466.877C551.628 462.206 548.769 455.519 547.726 451.457Z" fill="#F9B59D"/>
<path d="M550.602 414.293C545.804 413.629 533.138 413.172 533.138 413.172C533.138 413.172 531.459 413.629 531.994 413.364C518.011 415.834 516.465 426.204 516.465 426.204L509.635 456.174L502.038 456.586C499.581 461.247 501.383 473.813 501.383 473.813L538.183 477.961C538.183 477.961 546.138 479.27 552.867 470.643C557.313 464.934 558.813 447.41 558.813 434.607C558.827 434.607 558.063 415.322 550.602 414.293Z" fill="#2A1968"/>
<path d="M447.531 437.501H482.57L494.788 468.62H459.754L447.531 437.501Z" fill="#FCE6CF"/>
<path d="M494.788 468.62H492.963L480.74 437.501H482.57L494.788 468.62Z" fill="#F3CBC2"/>
<path d="M470.44 452.065C470.925 453.497 470.568 454.911 469.644 455.226C468.72 455.542 467.576 454.636 467.092 453.204C466.607 451.773 466.963 450.364 467.887 450.048C468.811 449.733 469.955 450.638 470.44 452.065Z" fill="#E2F2F1"/>
<path d="M506.37 466.096H493.283V468.612H506.37C506.704 468.612 507.024 468.479 507.26 468.243C507.496 468.007 507.628 467.687 507.628 467.354C507.628 467.02 507.496 466.7 507.26 466.464C507.024 466.228 506.704 466.096 506.37 466.096Z" fill="#F3CBC2"/>
<path d="M503.057 466.968H494.787V467.361H503.057V466.968Z" fill="#E23E3D"/>
<path d="M538.235 456.695C538.19 456.709 538.142 456.709 538.097 456.695C538.067 456.688 538.039 456.676 538.014 456.658C537.989 456.641 537.968 456.618 537.952 456.592C537.937 456.566 537.926 456.537 537.922 456.506C537.918 456.476 537.92 456.445 537.928 456.416C537.965 456.256 541.812 439.903 543.449 429.615C543.454 429.585 543.464 429.556 543.48 429.53C543.496 429.504 543.517 429.481 543.541 429.463C543.566 429.445 543.594 429.433 543.624 429.426C543.654 429.419 543.684 429.418 543.714 429.423C543.775 429.433 543.829 429.467 543.865 429.517C543.901 429.566 543.916 429.628 543.907 429.689C542.269 439.994 538.417 456.361 538.376 456.526C538.369 456.563 538.351 456.599 538.327 456.628C538.302 456.658 538.27 456.681 538.235 456.695V456.695Z" fill="#090028"/>
<path d="M514.433 456.427C514.383 456.443 514.329 456.443 514.278 456.427C514.22 456.407 514.172 456.365 514.144 456.311C514.116 456.256 514.11 456.193 514.127 456.134C514.186 455.951 519.891 437.837 521.084 431.589C521.096 431.528 521.13 431.474 521.181 431.439C521.231 431.404 521.294 431.39 521.354 431.401C521.415 431.413 521.469 431.449 521.504 431.5C521.539 431.551 521.553 431.614 521.542 431.675C520.343 437.96 514.63 456.093 514.571 456.276C514.561 456.31 514.544 456.341 514.52 456.367C514.496 456.393 514.466 456.414 514.433 456.427Z" fill="#090028"/>
<path d="M537.63 421.954L537.081 421.999C537.056 422.002 537.03 421.999 537.006 421.992C536.982 421.984 536.959 421.971 536.94 421.955C536.921 421.938 536.905 421.917 536.894 421.894C536.883 421.872 536.877 421.847 536.876 421.821C536.874 421.796 536.877 421.77 536.885 421.746C536.893 421.722 536.905 421.7 536.922 421.681C536.939 421.662 536.959 421.646 536.981 421.635C537.004 421.624 537.029 421.617 537.054 421.615C545.054 421.053 546.541 415.211 546.555 415.134C546.564 415.084 546.592 415.04 546.633 415.011C546.674 414.982 546.724 414.97 546.774 414.978C546.799 414.981 546.823 414.99 546.844 415.002C546.866 415.015 546.885 415.032 546.899 415.052C546.914 415.072 546.925 415.095 546.931 415.119C546.937 415.143 546.938 415.168 546.934 415.193C546.925 415.257 545.448 421.144 537.63 421.954Z" fill="#090028"/>
<path d="M512.8 452.104C512.749 452.124 512.692 452.125 512.64 452.107C512.588 452.088 512.544 452.052 512.517 452.003L510.957 449.332V449.241L516.217 426.164C516.659 424.02 517.599 422.011 518.962 420.299C521.098 417.518 525.311 413.982 533.252 412.926C533.313 412.918 533.375 412.935 533.424 412.972C533.473 413.01 533.505 413.066 533.513 413.127C533.517 413.157 533.516 413.188 533.508 413.217C533.501 413.247 533.487 413.274 533.469 413.299C533.451 413.323 533.428 413.343 533.401 413.359C533.375 413.374 533.346 413.384 533.316 413.388C525.54 414.421 521.423 417.861 519.346 420.56C518.022 422.221 517.1 424.165 516.652 426.241V426.241L511.414 449.236L512.883 451.752C512.898 451.779 512.908 451.808 512.912 451.839C512.916 451.869 512.914 451.9 512.906 451.93C512.898 451.96 512.884 451.988 512.865 452.012C512.846 452.036 512.823 452.057 512.796 452.072L512.8 452.104Z" fill="#090028"/>
<path d="M504.571 452.191C504.514 452.212 504.451 452.21 504.395 452.185C504.34 452.161 504.296 452.115 504.274 452.059C504.262 452.03 504.256 452 504.256 451.969C504.256 451.939 504.262 451.909 504.274 451.88C504.286 451.852 504.303 451.827 504.325 451.806C504.347 451.784 504.373 451.768 504.402 451.757L511.117 449.076C511.174 449.055 511.238 449.057 511.294 449.082C511.351 449.106 511.395 449.152 511.419 449.209C511.441 449.266 511.441 449.33 511.417 449.386C511.393 449.443 511.347 449.487 511.291 449.511L504.576 452.187L504.571 452.191Z" fill="#090028"/>
<path d="M502.037 456.587C502.037 456.587 499.608 462.318 501.383 473.813L510.266 469.047L507.627 460.461L502.037 456.587Z" fill="#2A1968"/>
<path d="M546.256 456.901C546.228 456.905 546.198 456.905 546.17 456.901C545.836 456.901 512.961 455.903 502.202 456.791C501.937 457.495 500.725 461.146 501.063 467.824C501.065 467.854 501.061 467.885 501.05 467.914C501.04 467.942 501.025 467.969 501.004 467.991C500.984 468.014 500.959 468.032 500.931 468.045C500.904 468.058 500.874 468.065 500.843 468.066C500.782 468.069 500.722 468.047 500.676 468.006C500.63 467.966 500.601 467.908 500.596 467.847C500.212 460.281 501.758 456.631 501.827 456.48L501.882 456.352H502.019C512.65 455.437 545.849 456.439 546.183 456.448C546.214 456.449 546.244 456.456 546.272 456.469C546.3 456.482 546.325 456.5 546.346 456.523C546.366 456.545 546.383 456.571 546.393 456.6C546.404 456.629 546.409 456.66 546.407 456.69C546.407 456.736 546.392 456.781 546.365 456.819C546.338 456.856 546.3 456.885 546.256 456.901V456.901Z" fill="#090028"/>
<path d="M531.226 395.74L530.965 405.853C530.965 405.853 530.745 409.101 533.577 409.581L532.936 413.904C532.815 414.684 532.971 415.482 533.377 416.159C533.784 416.836 534.414 417.349 535.159 417.609C536.021 417.909 536.924 418.073 537.835 418.094C541.088 418.181 542.913 415.807 543.215 414.576C543.517 413.346 542.853 407.518 542.853 407.518L543.027 404.655L542.945 393.558L531.226 395.74Z" fill="white"/>
<path d="M540.246 406.987C540.246 406.987 539.912 412.426 533.105 412.769L533.563 409.567C533.563 409.567 537.963 410.578 540.246 406.987Z" fill="#E8EBF8"/>
<path d="M538.938 401.249C538.955 401.249 538.973 401.247 538.989 401.24C539.006 401.234 539.021 401.224 539.034 401.212C539.059 401.186 539.073 401.152 539.073 401.116C539.073 401.08 539.059 401.045 539.034 401.02C539.034 401.02 537.204 399.048 535.461 400.375C535.436 400.401 535.422 400.435 535.422 400.471C535.422 400.507 535.436 400.541 535.461 400.567C535.486 400.592 535.52 400.606 535.555 400.606C535.59 400.606 535.624 400.592 535.649 400.567C537.19 399.391 538.787 401.107 538.851 401.18C538.858 401.198 538.87 401.213 538.886 401.225C538.901 401.237 538.919 401.245 538.938 401.249V401.249Z" fill="#090028"/>
<path d="M543.645 399.947L540.704 400.478L540.164 401.013C540.164 401.013 540.544 396.119 541.12 395.167C541.696 394.216 543.645 399.947 543.645 399.947Z" fill="#090028"/>
<path d="M533.376 400.291C533.396 400.291 533.416 400.288 533.434 400.28C533.452 400.272 533.468 400.26 533.482 400.245C533.507 400.22 533.521 400.185 533.521 400.149C533.521 400.113 533.507 400.079 533.482 400.053C533.427 400.007 532.164 398.868 531.327 399.545C531.311 399.556 531.297 399.57 531.287 399.586C531.277 399.602 531.27 399.621 531.267 399.64C531.264 399.659 531.266 399.678 531.271 399.697C531.276 399.715 531.285 399.732 531.297 399.747C531.309 399.762 531.325 399.774 531.342 399.783C531.359 399.791 531.378 399.796 531.397 399.797C531.416 399.798 531.435 399.794 531.453 399.787C531.471 399.78 531.487 399.77 531.501 399.756C532.155 399.225 533.285 400.245 533.299 400.254C533.32 400.274 533.348 400.287 533.376 400.291V400.291Z" fill="#090028"/>
<path d="M539.548 401.668C539.535 402.15 539.666 402.625 539.923 403.032C540.18 403.44 540.553 403.762 540.993 403.959C541.434 404.155 541.923 404.216 542.398 404.134C542.873 404.052 543.313 403.832 543.663 403.5C544.013 403.168 544.256 402.74 544.363 402.27C544.469 401.799 544.434 401.308 544.261 400.858C544.089 400.408 543.786 400.019 543.393 399.741C542.999 399.462 542.532 399.307 542.05 399.294C541.729 399.285 541.41 399.339 541.111 399.454C540.812 399.568 540.538 399.741 540.306 399.961C540.073 400.182 539.886 400.446 539.756 400.739C539.626 401.032 539.555 401.348 539.548 401.668V401.668Z" fill="white"/>
<path d="M542.373 403.099C542.594 403.097 542.808 403.025 542.984 402.892C543.16 402.76 543.289 402.574 543.352 402.362C543.427 402.162 543.433 401.942 543.368 401.738C543.303 401.534 543.172 401.358 542.995 401.237C542.806 401.11 542.583 401.042 542.355 401.042C542.127 401.042 541.904 401.11 541.715 401.237C541.806 400.986 541.986 400.777 542.222 400.652C542.566 400.505 542.952 400.49 543.306 400.61C543.323 400.616 543.342 400.615 543.358 400.608C543.374 400.6 543.387 400.586 543.393 400.569C543.397 400.561 543.399 400.552 543.399 400.543C543.398 400.534 543.396 400.525 543.392 400.517C543.388 400.508 543.383 400.501 543.376 400.495C543.369 400.489 543.361 400.485 543.352 400.482C542.962 400.35 542.537 400.366 542.158 400.528C541.996 400.621 541.855 400.747 541.744 400.897C541.633 401.047 541.554 401.219 541.513 401.402L541.449 401.635L541.628 401.47C541.799 401.308 542.019 401.208 542.253 401.185C542.487 401.162 542.723 401.217 542.922 401.342C543.071 401.448 543.182 401.599 543.236 401.774C543.291 401.948 543.287 402.136 543.224 402.307C543.173 402.493 543.063 402.656 542.91 402.773C542.757 402.889 542.57 402.952 542.378 402.952V402.952C542.363 402.956 542.35 402.965 542.341 402.977C542.332 402.989 542.327 403.004 542.327 403.019C542.327 403.034 542.332 403.049 542.341 403.061C542.35 403.073 542.363 403.081 542.378 403.085L542.373 403.099Z" fill="#AE253D"/>
<path d="M534.703 404.426C534.717 404.427 534.731 404.423 534.744 404.416C534.756 404.409 534.766 404.398 534.771 404.384C534.776 404.367 534.775 404.349 534.767 404.333C534.76 404.317 534.746 404.305 534.73 404.297L533.358 403.813L533.87 400.611C533.866 400.596 533.858 400.583 533.846 400.574C533.834 400.565 533.819 400.56 533.804 400.56C533.789 400.56 533.774 400.565 533.762 400.574C533.75 400.583 533.741 400.596 533.738 400.611L533.207 403.904L534.662 404.426H534.703Z" fill="#AE253D"/>
<path d="M535.7 405.775C535.659 405.775 533.02 405.633 533.02 405.633C533.02 405.633 533.321 406.735 534.3 406.786C535.279 406.836 535.7 405.775 535.7 405.775Z" fill="#FBFDFC"/>
<path d="M543.645 399.948C543.645 399.948 544.592 395.218 543.188 393.412C541.783 391.605 533.518 388.293 532.484 389.148C531.45 390.004 532.434 391.111 532.434 391.111C532.434 391.111 529.108 389.949 528.276 392.899C527.443 395.85 534.611 397.3 538.947 396.023C540.899 396.784 542.549 398.163 543.645 399.948V399.948Z" fill="#090028"/>
<path d="M544.592 477.271C544.09 477.461 543.579 477.625 543.059 477.76C541.465 478.222 539.797 478.368 538.147 478.19C538.116 478.185 538.087 478.174 538.061 478.158C538.035 478.142 538.012 478.12 537.994 478.095C537.976 478.07 537.964 478.042 537.957 478.012C537.95 477.982 537.949 477.951 537.955 477.92C537.966 477.86 537.999 477.807 538.049 477.771C538.098 477.735 538.159 477.72 538.22 477.728C539.815 477.892 541.427 477.749 542.968 477.307C545.507 476.63 549.253 474.897 552.679 470.501C556.983 464.98 558.557 447.991 558.593 435.119C558.587 435.085 558.588 435.05 558.596 435.017C558.604 434.983 558.62 434.952 558.642 434.925C558.664 434.899 558.691 434.877 558.722 434.862C558.754 434.848 558.788 434.84 558.822 434.84C558.857 434.84 558.891 434.848 558.922 434.862C558.953 434.877 558.981 434.899 559.003 434.925C559.025 434.952 559.04 434.983 559.049 435.017C559.057 435.05 559.058 435.085 559.051 435.119C559.01 448.064 557.413 465.176 553.04 470.798C550.168 474.476 547.053 476.338 544.592 477.271Z" fill="#090028"/>
<path d="M477.438 550.922L463.043 553.607L456.026 548.333L446.53 556.663L444.243 557.093C443.855 557.158 443.502 557.355 443.242 557.651C442.983 557.947 442.834 558.323 442.821 558.717C442.816 558.964 442.867 559.208 442.969 559.433C443.071 559.658 443.222 559.858 443.411 560.017C443.6 560.176 443.822 560.292 444.06 560.355C444.299 560.418 444.549 560.427 444.792 560.382L478.271 554.142C478.388 554.119 478.491 554.051 478.559 553.953C478.626 553.854 478.652 553.734 478.632 553.616L478.225 551.434C478.208 551.349 478.174 551.267 478.124 551.195C478.075 551.123 478.012 551.061 477.939 551.013C477.866 550.966 477.784 550.933 477.698 550.917C477.612 550.902 477.524 550.903 477.438 550.922V550.922Z" fill="#A22641"/>
<path d="M477.313 550.964L476.211 545.054C476.211 545.054 473.178 542.241 469.807 544.597C469.807 544.597 464.963 549.601 459.145 545.722L447.933 553.425C447.933 553.425 444.791 555.168 444.219 557.135L477.313 550.964Z" fill="#100E68"/>
<path d="M502.843 550.952L488.296 552.658L481.641 546.927L471.61 554.616L469.286 554.886C468.894 554.926 468.527 555.1 468.248 555.378C467.969 555.656 467.795 556.022 467.753 556.414C467.734 556.66 467.769 556.907 467.856 557.138C467.943 557.369 468.08 557.578 468.258 557.75C468.436 557.921 468.649 558.051 468.883 558.13C469.117 558.209 469.365 558.235 469.611 558.207L503.433 554.236C503.552 554.221 503.66 554.16 503.734 554.066C503.809 553.972 503.843 553.853 503.831 553.733L503.57 551.528C503.56 551.443 503.534 551.36 503.492 551.284C503.45 551.209 503.394 551.143 503.326 551.089C503.259 551.035 503.181 550.996 503.098 550.972C503.015 550.949 502.928 550.942 502.843 550.952V550.952Z" fill="#D95F76"/>
<path d="M502.714 550.984L502.015 545.01C502.015 545.01 499.179 542.001 495.647 544.123C495.647 544.123 490.474 548.789 484.934 544.53L473.224 551.456C473.224 551.456 469.972 552.983 469.268 554.909L502.714 550.984Z" fill="#1F1587"/>
</g>
<path d="M104.275 527.523L107.646 528.978L111.392 530.757C111.392 530.757 117.215 531.768 117.298 531.745L116.813 532.615C124.036 533.507 146.797 534.444 150.534 534.856C152.785 535.108 154.953 537.907 156.316 540.093L154.486 541.347C154.486 541.347 134.607 540.469 134.648 540.889C134.648 541.022 135.22 542.998 136.093 545.578C123.816 546.397 106.621 546.319 103.429 541.26C100.794 537.129 103.346 531.155 104.275 527.523Z" fill="white"/>
<path d="M181.493 616.748L166.389 616.954L166.174 602.833L181.218 600.972L181.493 616.748Z" fill="white"/>
<path d="M134.519 566.403C134.519 566.403 121.519 566.618 112.403 566.307C109.48 566.206 106.877 566.412 105.336 566.069C98.9911 564.66 97.4267 544.863 104.631 532.732C111.836 520.601 137.035 557.845 137.035 557.845L134.519 566.403Z" fill="#0B1249"/>
<path d="M158.05 616.748L142.946 616.954L142.73 602.833L157.775 600.972L158.05 616.748Z" fill="white"/>
<path d="M148.522 539.899C148.522 539.899 180.459 541.94 181.383 545.626C182.307 549.313 184.946 588.528 182.97 605.256C182.97 605.256 170.853 606.089 165.057 604.684L163.644 563.896L154.079 562.798L132.164 536.455L148.522 539.899Z" fill="#2836A5"/>
<path d="M133.175 539.297C133.175 539.297 157.807 546.245 158.726 549.937C159.646 553.628 162.276 588.616 160.3 605.344C160.3 605.344 147.268 606.09 141.472 604.686L139.912 566.207L134.291 566.404L120.664 542.426L133.175 539.297Z" fill="#0B1249"/>
<path d="M166.781 564.766C163.863 563.824 159.842 563.682 159.801 563.677V563.22C159.842 563.22 163.918 563.366 166.905 564.331L166.781 564.766Z" fill="#090028"/>
<path d="M173.356 605.715C170.551 605.74 167.751 605.467 165.003 604.901L164.839 604.864L163.416 563.618L165.246 565.086L164.967 565.43L163.901 564.574L165.273 604.507C168.076 605.06 170.929 605.316 173.786 605.271V605.729L173.356 605.715Z" fill="#090028"/>
<path d="M167.161 598.313C166.548 594.731 167.129 570.497 167.161 569.468H167.618C167.618 569.719 167.01 594.69 167.618 598.226L167.161 598.313Z" fill="#090028"/>
<path d="M132.535 526.877C132.993 526.877 150.667 534.479 150.667 534.479L147.104 541.3L137.173 539.122L132.535 526.877Z" fill="#C43F5C"/>
<path d="M106.896 495.17C106.896 495.17 99.3711 494.904 95.7804 496.94C90.4194 499.977 92.3314 517.364 92.3314 517.364C92.3314 517.364 96.8828 514.88 97.1618 514.052C97.4408 513.224 106.896 495.17 106.896 495.17Z" fill="#C43F5C"/>
<path d="M105.066 532.916H105.093L110.628 534.178C110.655 534.185 110.682 534.186 110.709 534.182C110.736 534.178 110.762 534.168 110.785 534.153C110.808 534.139 110.828 534.12 110.843 534.097C110.859 534.075 110.87 534.049 110.875 534.023C110.881 533.996 110.882 533.969 110.877 533.942C110.873 533.915 110.863 533.89 110.849 533.867C110.834 533.844 110.815 533.824 110.793 533.808C110.771 533.793 110.746 533.782 110.72 533.776L105.185 532.509C105.135 532.502 105.085 532.514 105.043 532.541C105.001 532.568 104.97 532.609 104.956 532.657C104.942 532.705 104.945 532.756 104.965 532.802C104.985 532.848 105.021 532.885 105.066 532.907V532.916Z" fill="#090028"/>
<path d="M102.184 529.621L105.551 531.08L109.302 532.855C109.302 532.855 115.12 533.866 115.202 533.848L114.722 534.712C121.94 535.627 144.702 536.542 148.439 536.958C150.694 537.21 152.857 540.009 154.221 542.196L152.391 543.444C152.391 543.444 132.511 542.571 132.552 542.987C132.552 543.12 133.129 545.091 133.998 547.676C121.721 548.494 104.526 548.417 101.338 543.358C98.6985 539.209 101.251 533.248 102.184 529.621Z" fill="#F9B59D"/>
<path d="M99.6176 496.523C103.895 495.932 115.17 495.525 115.17 495.525C115.17 495.525 116.666 495.914 116.19 495.695C128.65 497.895 130.027 507.13 130.027 507.13L136.106 533.825L142.876 534.191C145.067 538.345 143.457 549.538 143.457 549.538L110.678 553.234C110.678 553.234 103.593 554.4 97.5958 546.716C93.6345 541.629 92.2852 526.022 92.2852 514.614C92.2897 514.618 92.9712 497.447 99.6176 496.523Z" fill="#C43F5C"/>
<path d="M191.437 517.199H160.226L149.34 544.919H180.55L191.437 517.199Z" fill="#090028"/>
<path d="M149.34 544.919H150.968L161.855 517.199H160.226L149.34 544.919Z" fill="#030014"/>
<path d="M171.032 530.176C170.602 531.447 170.918 532.705 171.741 532.989C172.564 533.272 173.571 532.463 174.028 531.186C174.486 529.91 174.147 528.657 173.324 528.373C172.5 528.09 171.466 528.895 171.032 530.176Z" fill="#E2F2F1"/>
<path d="M139.02 542.678H150.68V544.919H139.02C138.724 544.918 138.44 544.799 138.231 544.589C138.022 544.379 137.904 544.095 137.904 543.798V543.798C137.904 543.502 138.022 543.218 138.231 543.008C138.44 542.798 138.724 542.679 139.02 542.678V542.678Z" fill="#030014"/>
<path d="M141.975 543.804H149.34V543.452H141.975V543.804Z" fill="#090028"/>
<path d="M110.637 534.293C110.676 534.305 110.718 534.305 110.756 534.293C110.783 534.287 110.808 534.276 110.83 534.26C110.852 534.245 110.871 534.225 110.886 534.202C110.9 534.179 110.91 534.153 110.914 534.127C110.919 534.1 110.918 534.073 110.912 534.046C110.875 533.9 107.449 519.335 105.995 510.169C105.985 510.115 105.954 510.068 105.91 510.036C105.865 510.005 105.811 509.991 105.757 509.999C105.73 510.003 105.703 510.013 105.68 510.027C105.656 510.041 105.636 510.06 105.62 510.082C105.604 510.104 105.592 510.129 105.586 510.156C105.579 510.182 105.578 510.21 105.583 510.237C107.047 519.413 110.473 533.991 110.509 534.138C110.514 534.173 110.529 534.206 110.551 534.234C110.574 534.261 110.604 534.282 110.637 534.293V534.293Z" fill="#916D47"/>
<path d="M131.839 534.055C131.883 534.069 131.931 534.069 131.976 534.055C132.002 534.047 132.026 534.033 132.046 534.016C132.067 533.998 132.084 533.976 132.097 533.952C132.109 533.928 132.116 533.902 132.118 533.874C132.12 533.847 132.117 533.82 132.108 533.794C132.058 533.634 126.976 517.505 125.915 511.929C125.91 511.903 125.9 511.877 125.885 511.854C125.87 511.831 125.851 511.812 125.828 511.796C125.806 511.781 125.78 511.77 125.754 511.765C125.727 511.759 125.699 511.759 125.673 511.765C125.646 511.77 125.62 511.78 125.597 511.795C125.574 511.81 125.555 511.829 125.539 511.851C125.524 511.874 125.513 511.899 125.508 511.926C125.503 511.953 125.503 511.98 125.508 512.007C126.574 517.606 131.665 533.758 131.715 533.918C131.724 533.948 131.74 533.977 131.761 534.001C131.782 534.024 131.809 534.043 131.839 534.055V534.055Z" fill="#090028"/>
<path d="M111.178 503.348C111.338 503.348 111.498 503.38 111.667 503.389C111.712 503.392 111.756 503.377 111.79 503.348C111.824 503.319 111.846 503.278 111.85 503.234C111.853 503.188 111.838 503.143 111.808 503.108C111.778 503.073 111.736 503.051 111.69 503.046C104.559 502.548 103.237 497.329 103.228 497.278C103.224 497.256 103.216 497.234 103.203 497.215C103.191 497.195 103.175 497.179 103.157 497.166C103.138 497.152 103.117 497.143 103.094 497.138C103.072 497.133 103.049 497.132 103.026 497.136C102.982 497.143 102.942 497.167 102.916 497.203C102.889 497.239 102.878 497.284 102.885 497.329C102.894 497.383 104.211 502.63 111.178 503.348Z" fill="#090028"/>
<path d="M133.293 530.207C133.339 530.224 133.39 530.223 133.435 530.207C133.481 530.19 133.52 530.158 133.545 530.116L134.917 527.733V527.655L130.224 507.098C129.824 505.187 128.98 503.398 127.758 501.874C125.856 499.395 122.1 496.248 115.028 495.306C115.001 495.302 114.974 495.303 114.947 495.31C114.921 495.317 114.896 495.329 114.874 495.346C114.853 495.363 114.834 495.383 114.821 495.407C114.807 495.431 114.798 495.457 114.795 495.484C114.791 495.511 114.793 495.539 114.8 495.565C114.807 495.592 114.819 495.617 114.835 495.638C114.852 495.66 114.873 495.678 114.896 495.692C114.92 495.705 114.946 495.714 114.973 495.717C121.894 496.632 125.558 499.702 127.415 502.121C128.595 503.6 129.417 505.332 129.817 507.181V507.181L134.483 527.668L133.174 529.905C133.147 529.953 133.14 530.009 133.153 530.062C133.167 530.115 133.201 530.16 133.247 530.189L133.293 530.207Z" fill="#090028"/>
<path d="M140.627 530.268C140.678 530.287 140.734 530.285 140.784 530.263C140.834 530.241 140.873 530.2 140.892 530.149C140.912 530.098 140.911 530.042 140.889 529.993C140.868 529.943 140.828 529.904 140.778 529.883L134.799 527.523C134.748 527.503 134.691 527.504 134.641 527.525C134.591 527.547 134.551 527.587 134.529 527.637C134.519 527.663 134.514 527.69 134.514 527.717C134.514 527.744 134.519 527.771 134.53 527.796C134.541 527.821 134.556 527.844 134.576 527.863C134.595 527.882 134.618 527.897 134.644 527.907L140.627 530.295V530.268Z" fill="#090028"/>
<path d="M142.881 534.196C142.881 534.196 145.044 539.306 143.462 549.543L135.553 545.298L137.904 537.65L142.881 534.196Z" fill="#C43F5C"/>
<path d="M103.489 534.481C103.514 534.488 103.541 534.488 103.566 534.481C103.864 534.481 133.153 533.593 142.736 534.385C142.973 535.016 144.053 538.263 143.751 544.21C143.749 544.265 143.768 544.319 143.805 544.36C143.841 544.401 143.893 544.426 143.948 544.43C143.975 544.431 144.002 544.427 144.027 544.417C144.053 544.408 144.076 544.394 144.096 544.376C144.116 544.358 144.132 544.336 144.144 544.311C144.155 544.286 144.162 544.26 144.163 544.233C144.506 537.495 143.129 534.243 143.074 534.106L143.024 533.996H142.9C133.427 533.186 103.855 534.073 103.562 534.083C103.515 534.087 103.472 534.107 103.438 534.139C103.404 534.171 103.381 534.213 103.374 534.259C103.366 534.305 103.375 534.352 103.397 534.393C103.42 534.434 103.455 534.467 103.498 534.485L103.489 534.481Z" fill="#916D47"/>
<path d="M116.875 479.996L117.108 489.008C117.108 489.008 117.305 491.899 114.78 492.329L115.357 496.18C115.461 496.874 115.321 497.583 114.96 498.185C114.598 498.787 114.038 499.244 113.376 499.478C112.61 499.754 111.806 499.908 110.993 499.935C108.097 500.009 106.473 497.877 106.203 496.798C105.934 495.718 106.524 490.513 106.524 490.513L106.368 487.965L106.441 478.075L116.875 479.996Z" fill="white"/>
<path d="M108.844 490.014C108.844 490.014 109.141 494.858 115.207 495.164L114.781 492.324C114.781 492.324 110.875 493.216 108.844 490.014Z" fill="#D9D9D9"/>
<path d="M110.01 484.904C109.987 484.904 109.964 484.898 109.944 484.885C109.925 484.873 109.909 484.855 109.899 484.834C109.889 484.813 109.885 484.789 109.888 484.766C109.89 484.743 109.9 484.721 109.914 484.703C109.914 484.703 111.547 482.942 113.116 484.127C113.137 484.15 113.148 484.18 113.148 484.211C113.148 484.242 113.137 484.272 113.116 484.296C113.093 484.317 113.063 484.329 113.032 484.329C113 484.329 112.97 484.317 112.947 484.296C111.575 483.248 110.148 484.753 110.088 484.84C110.081 484.856 110.071 484.87 110.057 484.882C110.043 484.893 110.027 484.9 110.01 484.904Z" fill="#090028"/>
<path d="M105.816 483.748L108.437 484.205L108.918 484.663C108.918 484.663 108.579 480.304 108.067 479.457C107.555 478.611 105.816 483.748 105.816 483.748Z" fill="#090028"/>
<path d="M114.963 484.068C114.946 484.068 114.929 484.065 114.914 484.059C114.898 484.053 114.884 484.043 114.872 484.031C114.85 484.007 114.838 483.976 114.838 483.944C114.838 483.912 114.85 483.881 114.872 483.857C114.922 483.816 116.047 482.8 116.793 483.4C116.816 483.423 116.829 483.454 116.829 483.487C116.829 483.519 116.816 483.55 116.793 483.574C116.782 483.585 116.769 483.594 116.754 483.6C116.74 483.606 116.724 483.609 116.708 483.609C116.693 483.609 116.677 483.606 116.663 483.6C116.648 483.594 116.635 483.585 116.624 483.574C116.043 483.116 115.032 484.008 115.023 484.031C115.008 484.05 114.987 484.062 114.963 484.068Z" fill="#090028"/>
<path d="M112.462 485.33C112.464 485.425 112.427 485.518 112.362 485.587C112.296 485.656 112.206 485.697 112.11 485.7C112.037 485.703 111.966 485.684 111.904 485.646C111.842 485.607 111.793 485.552 111.763 485.485C111.733 485.419 111.723 485.345 111.736 485.274C111.748 485.202 111.781 485.135 111.831 485.083C111.881 485.03 111.946 484.993 112.017 484.977C112.088 484.962 112.162 484.967 112.23 484.994C112.298 485.021 112.356 485.067 112.397 485.126C112.439 485.186 112.461 485.257 112.462 485.33V485.33Z" fill="#1A2578"/>
<path d="M116.301 484.867C116.303 484.938 116.283 485.009 116.245 485.069C116.207 485.13 116.151 485.177 116.086 485.206C116.021 485.235 115.948 485.244 115.878 485.232C115.808 485.22 115.742 485.187 115.69 485.138C115.639 485.089 115.603 485.025 115.587 484.955C115.571 484.886 115.577 484.813 115.602 484.746C115.628 484.68 115.673 484.622 115.731 484.581C115.789 484.54 115.859 484.517 115.93 484.515C115.978 484.514 116.025 484.522 116.069 484.539C116.113 484.556 116.154 484.581 116.188 484.614C116.223 484.647 116.25 484.686 116.27 484.729C116.289 484.773 116.3 484.82 116.301 484.867V484.867Z" fill="#1A2578"/>
<path d="M109.466 485.279C109.477 485.709 109.361 486.132 109.132 486.496C108.903 486.86 108.571 487.147 108.179 487.322C107.786 487.497 107.35 487.552 106.927 487.479C106.503 487.407 106.11 487.21 105.798 486.914C105.487 486.618 105.27 486.237 105.175 485.817C105.08 485.398 105.111 484.96 105.266 484.559C105.42 484.157 105.689 483.811 106.04 483.563C106.392 483.315 106.808 483.177 107.238 483.166C107.814 483.151 108.372 483.365 108.789 483.761C109.207 484.158 109.45 484.704 109.466 485.279V485.279Z" fill="white"/>
<path d="M106.945 486.552C106.749 486.55 106.559 486.486 106.403 486.368C106.246 486.25 106.132 486.086 106.076 485.898C106.009 485.719 106.004 485.523 106.062 485.341C106.12 485.159 106.238 485.003 106.396 484.896C106.564 484.782 106.763 484.721 106.966 484.721C107.169 484.721 107.367 484.782 107.535 484.896C107.452 484.672 107.289 484.486 107.078 484.375C106.772 484.244 106.429 484.23 106.113 484.333C106.105 484.338 106.097 484.34 106.088 484.341C106.08 484.342 106.071 484.341 106.063 484.338C106.055 484.335 106.047 484.331 106.041 484.324C106.035 484.318 106.03 484.311 106.027 484.303C106.024 484.295 106.023 484.286 106.023 484.278C106.024 484.269 106.027 484.261 106.031 484.253C106.035 484.245 106.041 484.239 106.048 484.234C106.055 484.229 106.063 484.225 106.071 484.224C106.418 484.104 106.797 484.119 107.133 484.265C107.278 484.346 107.405 484.458 107.504 484.592C107.604 484.726 107.673 484.88 107.709 485.042L107.764 485.253L107.608 485.102C107.456 484.958 107.26 484.869 107.052 484.848C106.843 484.827 106.633 484.876 106.456 484.988C106.322 485.082 106.222 485.217 106.173 485.374C106.125 485.53 106.129 485.698 106.186 485.852C106.233 486.016 106.331 486.161 106.468 486.264C106.604 486.367 106.77 486.423 106.941 486.424V486.424C106.948 486.423 106.956 486.424 106.964 486.427C106.971 486.429 106.978 486.433 106.984 486.438C106.99 486.443 106.995 486.449 106.998 486.456C107.002 486.463 107.004 486.471 107.005 486.479C107.005 486.487 107.004 486.495 107.002 486.503C106.999 486.511 106.995 486.518 106.989 486.524C106.983 486.53 106.977 486.535 106.969 486.538C106.962 486.541 106.953 486.543 106.945 486.543V486.552Z" fill="#AE253D"/>
<path d="M113.802 487.726C113.789 487.727 113.776 487.723 113.766 487.716C113.755 487.708 113.747 487.698 113.743 487.685C113.738 487.671 113.74 487.655 113.747 487.641C113.753 487.628 113.765 487.617 113.779 487.612L114.978 487.155L114.52 484.319C114.519 484.311 114.519 484.303 114.521 484.295C114.523 484.287 114.526 484.28 114.531 484.274C114.536 484.267 114.542 484.262 114.549 484.258C114.555 484.254 114.563 484.251 114.571 484.25C114.587 484.247 114.604 484.251 114.617 484.26C114.631 484.27 114.641 484.284 114.644 484.3L115.101 487.237L113.807 487.694L113.802 487.726Z" fill="#AE253D"/>
<path d="M112.896 488.935L115.284 488.812C115.284 488.812 115.014 489.795 114.141 489.841C113.267 489.886 112.896 488.935 112.896 488.935Z" fill="#A9A9A9"/>
<path d="M105.816 483.747C105.816 483.747 104.974 479.534 106.227 477.924C107.481 476.314 114.841 473.35 115.765 474.128C116.689 474.905 115.81 475.875 115.81 475.875C115.81 475.875 118.77 474.837 119.511 477.467C120.252 480.097 113.866 481.387 110.006 480.248C108.264 480.926 106.793 482.155 105.816 483.747V483.747Z" fill="#090028"/>
<path d="M196.715 620.546H166.273V614.339C166.273 614.339 168.487 611.356 171.859 612.879C171.859 612.879 176.959 616.498 181.464 612.12L192.626 617.069C192.626 617.069 196.715 618.437 196.715 620.546Z" fill="#C43F5C"/>
<path d="M196.825 622.723H166.05C165.92 622.723 165.795 622.671 165.703 622.579C165.612 622.487 165.56 622.363 165.56 622.233V620.239C165.56 620.109 165.612 619.985 165.703 619.893C165.795 619.801 165.92 619.749 166.05 619.749H196.825C196.984 619.749 197.142 619.781 197.289 619.842C197.436 619.903 197.57 619.992 197.682 620.104C197.795 620.217 197.884 620.351 197.945 620.498C198.006 620.645 198.037 620.802 198.037 620.962V621.533C198.031 621.851 197.901 622.153 197.674 622.376C197.447 622.598 197.142 622.723 196.825 622.723V622.723Z" fill="#0B1249"/>
<path d="M172.965 620.546H142.523V614.339C142.523 614.339 144.737 611.356 148.109 612.879C148.109 612.879 153.209 616.498 157.714 612.12L168.88 617.069C168.88 617.069 172.965 618.437 172.965 620.546Z" fill="#C43F5C"/>
<path d="M173.067 622.723H142.292C142.162 622.723 142.037 622.671 141.946 622.579C141.854 622.487 141.802 622.363 141.802 622.233V620.239C141.802 620.109 141.854 619.985 141.946 619.893C142.037 619.801 142.162 619.749 142.292 619.749H173.067C173.389 619.749 173.697 619.877 173.924 620.104C174.152 620.332 174.279 620.64 174.279 620.962V621.533C174.273 621.851 174.143 622.153 173.916 622.376C173.69 622.598 173.385 622.723 173.067 622.723V622.723Z" fill="#1A2578"/>
<path opacity="0.2" d="M510.64 121.213C518.726 121.213 525.281 114.45 525.281 106.107C525.281 97.7634 518.726 91 510.64 91C502.555 91 496 97.7634 496 106.107C496 114.45 502.555 121.213 510.64 121.213Z" stroke="#BF0830" stroke-width="10"/>
<path opacity="0.3" d="M114.5 228.478C118.642 228.478 122 225.013 122 220.739C122 216.465 118.642 213 114.5 213C110.358 213 107 216.465 107 220.739C107 225.013 110.358 228.478 114.5 228.478Z" stroke="#6258C4" stroke-width="5"/>
<path opacity="0.3" d="M579.5 327.478C583.642 327.478 587 324.013 587 319.739C587 315.465 583.642 312 579.5 312C575.358 312 572 315.465 572 319.739C572 324.013 575.358 327.478 579.5 327.478Z" stroke="#74BBFB" stroke-width="5"/>
<g opacity="0.84" filter="url(#filter1_b_404_14238)">
<path d="M215.967 529.213C215.487 530.299 214.411 531 213.223 531H178.607C176.438 531 174.986 528.77 175.863 526.787L186.035 503.787C186.515 502.701 187.591 502 188.778 502H223.393C225.562 502 227.014 504.23 226.137 506.213L215.967 529.213Z" fill="white" fill-opacity="0.46"/>
</g>
<g opacity="0.84" filter="url(#filter2_b_404_14238)">
<path d="M216.967 530.213C216.487 531.299 215.411 532 214.223 532H179.607C177.438 532 175.986 529.77 176.863 527.787L187.035 504.787C187.515 503.701 188.591 503 189.778 503H224.393C226.562 503 228.014 505.23 227.137 507.213L216.967 530.213Z" fill="white" fill-opacity="0.27"/>
</g>
<path d="M198.67 511.313L192.459 511.231L195.219 520.069L201.428 520.151L198.67 511.313Z" fill="#0056A7"/>
<path d="M195.18 519.814L195.275 520.063L201.484 520.143L199.454 513.936L195.18 519.814Z" fill="#2E3191"/>
<path d="M211.831 504.061L195.277 520.063L201.486 520.145L218.042 504.142L211.831 504.061Z" fill="#0056A7"/>
<path d="M194.473 522.475L200.505 522.553L198.818 527.625L192.785 527.545L194.473 522.475Z" fill="#0056A7"/>
<g filter="url(#filter3_bd_404_14238)">
<path d="M356.936 458.416C358.69 462.416 362.644 465 367.011 465H471.925C474.81 465 476.747 462.037 475.588 459.394L442.278 383.394C441.64 381.94 440.202 381 438.614 381H329.121C326.235 381 324.299 383.963 325.457 386.606L356.936 458.416Z" fill="#E2738B" fill-opacity="0.61" shape-rendering="crispEdges"/>
</g>
<g filter="url(#filter4_b_404_14238)">
<path d="M353.936 461.416C355.69 465.416 359.644 468 364.011 468H468.925C471.81 468 473.747 465.037 472.588 462.394L439.278 386.394C438.64 384.94 437.202 384 435.614 384H326.121C323.235 384 321.299 386.963 322.457 389.606L353.936 461.416Z" fill="#E2738B" fill-opacity="0.61"/>
</g>
<path d="M420.564 438.475C420.988 439.433 420.672 440.231 419.862 440.247L409.553 440.459C408.752 440.459 407.726 439.706 407.301 438.748L401.89 426.588C401.465 425.63 401.782 424.832 402.595 424.812L412.9 424.604C413.702 424.604 414.728 425.357 415.153 426.315L420.564 438.475Z" fill="#07BFDD"/>
<path d="M427.166 422.872C427.591 423.83 427.274 424.627 426.464 424.643L416.156 424.856C415.354 424.856 414.328 424.102 413.903 423.14L408.496 410.984C408.067 410.026 408.384 409.224 409.198 409.208L419.502 409C420.304 409 421.33 409.753 421.755 410.711L427.166 422.872Z" fill="#007FFF"/>
<path d="M394.083 439.016C394.512 439.974 394.195 440.776 393.382 440.792L383.077 441C382.275 441 381.249 440.247 380.824 439.289L375.413 427.129C374.989 426.171 375.305 425.373 376.115 425.357L386.424 425.145C387.225 425.145 388.247 425.898 388.676 426.856L394.083 439.016Z" fill="#1DA5F8"/>
<path d="M373.858 423.963C374.287 424.921 373.971 425.722 373.157 425.738L362.852 425.951C362.051 425.951 361.025 425.197 360.6 424.235L355.189 412.075C354.764 411.117 355.081 410.319 355.89 410.303L366.195 410.091C366.997 410.091 368.027 410.848 368.452 411.806L373.858 423.963Z" fill="#8CC936"/>
<path d="M347 49.3261C319.066 37.2304 311.5 13.5688 311.5 0C309.418 30.5 289.5 44.5 277 50.5C304 57.1739 309.366 85.7681 312.082 100.5C315 67.5 335 50.5 347 49.3261Z" fill="#F1C21C"/>
<defs>
<filter id="filter0_d_404_14238" x="431.82" y="384.01" width="134.327" height="189.4" filterUnits="userSpaceOnUse" color-interpolation-filters="sRGB">
<feFlood flood-opacity="0" result="BackgroundImageFix"/>
<feColorMatrix in="SourceAlpha" type="matrix" values="0 0 0 0 0 0 0 0 0 0 0 0 0 0 0 0 0 0 127 0" result="hardAlpha"/>
<feOffset dx="-2" dy="4"/>
<feGaussianBlur stdDeviation="4.5"/>
<feComposite in2="hardAlpha" operator="out"/>
<feColorMatrix type="matrix" values="0 0 0 0 0 0 0 0 0 0 0 0 0 0 0 0 0 0 0.25 0"/>
<feBlend mode="normal" in2="BackgroundImageFix" result="effect1_dropShadow_404_14238"/>
<feBlend mode="normal" in="SourceGraphic" in2="effect1_dropShadow_404_14238" result="shape"/>
</filter>
<filter id="filter1_b_404_14238" x="171.604" y="498" width="58.793" height="37" filterUnits="userSpaceOnUse" color-interpolation-filters="sRGB">
<feFlood flood-opacity="0" result="BackgroundImageFix"/>
<feGaussianBlur in="BackgroundImageFix" stdDeviation="2"/>
<feComposite in2="SourceAlpha" operator="in" result="effect1_backgroundBlur_404_14238"/>
<feBlend mode="normal" in="SourceGraphic" in2="effect1_backgroundBlur_404_14238" result="shape"/>
</filter>
<filter id="filter2_b_404_14238" x="172.604" y="499" width="58.793" height="37" filterUnits="userSpaceOnUse" color-interpolation-filters="sRGB">
<feFlood flood-opacity="0" result="BackgroundImageFix"/>
<feGaussianBlur in="BackgroundImageFix" stdDeviation="2"/>
<feComposite in2="SourceAlpha" operator="in" result="effect1_backgroundBlur_404_14238"/>
<feBlend mode="normal" in="SourceGraphic" in2="effect1_backgroundBlur_404_14238" result="shape"/>
</filter>
<filter id="filter3_bd_404_14238" x="321.116" y="379" width="158.812" height="94" filterUnits="userSpaceOnUse" color-interpolation-filters="sRGB">
<feFlood flood-opacity="0" result="BackgroundImageFix"/>
<feGaussianBlur in="BackgroundImageFix" stdDeviation="1"/>
<feComposite in2="SourceAlpha" operator="in" result="effect1_backgroundBlur_404_14238"/>
<feColorMatrix in="SourceAlpha" type="matrix" values="0 0 0 0 0 0 0 0 0 0 0 0 0 0 0 0 0 0 127 0" result="hardAlpha"/>
<feOffset dy="4"/>
<feGaussianBlur stdDeviation="2"/>
<feComposite in2="hardAlpha" operator="out"/>
<feColorMatrix type="matrix" values="0 0 0 0 0 0 0 0 0 0 0 0 0 0 0 0 0 0 0.25 0"/>
<feBlend mode="normal" in2="effect1_backgroundBlur_404_14238" result="effect2_dropShadow_404_14238"/>
<feBlend mode="normal" in="SourceGraphic" in2="effect2_dropShadow_404_14238" result="shape"/>
</filter>
<filter id="filter4_b_404_14238" x="320.116" y="382" width="154.812" height="88" filterUnits="userSpaceOnUse" color-interpolation-filters="sRGB">
<feFlood flood-opacity="0" result="BackgroundImageFix"/>
<feGaussianBlur in="BackgroundImageFix" stdDeviation="1"/>
<feComposite in2="SourceAlpha" operator="in" result="effect1_backgroundBlur_404_14238"/>
<feBlend mode="normal" in="SourceGraphic" in2="effect1_backgroundBlur_404_14238" result="shape"/>
</filter>
</defs>
</svg>
